<?xml version="1.0" encoding="UTF-8" standalone="no"?>
<!DOCTYPE svg  PUBLIC '-//W3C//DTD SVG 1.1//EN'  'http://www.w3.org/Graphics/SVG/1.1/DTD/svg11.dtd'>
<svg width="402pt" xmlns="http://www.w3.org/2000/svg" viewBox="0 0 402 402" version="1.1" height="402pt">
 <path d="m0 0h402v402h-402v-402z" fill="#fff"/>
 <path d="m160.11 46.24c11.4-6.22 22.46-14.98 35.95-15.52-0.58 0.63-1.16 1.26-1.73 1.89 1.33 0.5 2.67 1 4 1.51-0.26 0.61-0.52 1.23-0.78 1.85 1.29 0.11 2.58 0.22 3.87 0.32-0.06 0.28-0.19 0.83-0.26 1.11-13.02-2.17-24.28 6.26-35.05 12.18-2.36-0.4-4.53-1.4-6-3.34z" fill="#bde1b1"/>
 <path d="m196.06 30.72c13.66 0.35 25.02 8.89 36.49 15.26-1.06 0.49-2.12 0.98-3.18 1.46-0.81-0.69-1.63-1.38-2.44-2.06-0.41 1.18-0.81 2.37-1.21 3.55-7.92-4.35-15.59-9.6-24.56-11.53 0.07-0.28 0.2-0.83 0.26-1.11-1.29-0.1-2.58-0.21-3.87-0.32 0.26-0.62 0.52-1.24 0.78-1.85-1.33-0.51-2.67-1.01-4-1.51 0.57-0.63 1.15-1.26 1.73-1.89z" fill="#d1e8a9"/>
 <path d="m166.11 49.58c10.77-5.92 22.03-14.35 35.05-12.18 8.97 1.93 16.64 7.18 24.56 11.53 5.17 2.85 10.41 5.7 16.15 7.25 10.36 2.86 21.23 2.46 31.78 4.17 7.11 1.29 14.06 4.47 18.76 10.12 4.56 5.23 7.84 11.38 11.37 17.31 4.29 7.09 8.1 14.57 13.75 20.71 7.23 7.91 16.24 13.85 24.32 20.83 4.43 3.91 7.86 8.73 11.37 13.44 5.59 16.2 3.57 33.62 6.62 50.27 0.55 4.18 2.77 8.43 0.8 12.58-5.58 16.28-3.69 33.73-6.57 50.47-1.63 11.21-9.78 19.91-18.39 26.58-7.96 6.3-16.28 12.42-22.42 20.62-6.07 8.14-10.44 17.36-15.77 25.97-3.59 5.31-7.32 10.85-12.91 14.26-6.6 4.13-14.63 4.19-22.07 5.48-7.81 0.41-15.67 1.14-23.19 3.38-13.61 4.5-24.43 15.36-38.68 18.21-7.03 1.51-13.91-1.35-20.18-4.21-10.65-5.48-20.51-13.15-32.51-15.47-13.51-2.93-28.41-0.66-40.74-8-9.29-7.05-13.99-18.11-19.87-27.82-3.79-6.75-8.1-13.32-13.75-18.68-7.75-7.77-17.36-13.43-24.77-21.56-1.56-1.76-3.07-3.57-4.46-5.47-2.7-4.05-4.53-8.65-5.3-13.47-2-9.22-1.94-18.68-2.65-28.04-0.8-8.86-1.88-17.76-5.01-26.13 0.69-4.99 2.19-9.87 2.57-14.93 1.7-10.64 1-21.49 2.72-32.13 1.35-6.51 3.64-12.96 7.73-18.28 7.07-8.72 16.81-14.55 24.94-22.12 10.12-8.43 16.4-20.2 22.67-31.54 4.39-7.18 9.14-14.8 16.78-18.89 6.75-3.53 14.5-4.01 21.94-4.77 7.09-0.61 14.26-1.08 21.14-3.06 5-1.5 9.7-3.85 14.22-6.43z" fill="#fff"/>
 <path d="m157.73 57.71c12.12-4.79 22.24-14.06 35.17-16.85 4.45 4.64 6.15 11.83 3.33 17.75-4.49 0.55-8.95 1.27-13.4 2.05 1.94 0.55 3.91 1 5.89 1.41-2.1 2.91-5.48 4.11-8.83 4.91 1.4 0.54 2.82 1.04 4.24 1.54 0.68 4.07 5.77 3.08 8.77 3.92-1.79 0.46-3.58 0.94-5.35 1.45 1.37 0.58 2.76 1.15 4.16 1.7-1.36 0.46-3.05 0.55-3.87 1.91 3.12 0.01 6.26-0.33 9.36 0.17 0.34 1.11 0.69 2.22 1.05 3.33-0.57 0.12-1.71 0.35-2.28 0.47 1.66 0.43 3.33 0.84 5 1.26-2.97 0.98-5.99 1.72-9.04 2.36 1.3 0.49 2.59 0.98 3.9 1.48-2.98 0.59-5.96 1.19-8.89 2.01 3.51 1.59 7.39 0.51 11.08 0.67-2.01 0.86-4.03 1.7-6.04 2.53 0.98 0.83 1.97 1.66 2.95 2.5-2.32-0.31-4.25-1.58-6.01-3.04-0.44 0.14-1.33 0.42-1.78 0.56 0.94 0.84 1.88 1.67 2.82 2.5-0.8 4.2-7.15 2.92-7.39 7.35-0.02 2.39 2.54 3.9 3.7 5.83-0.61 0.62-1.21 1.24-1.81 1.87 2.56 1 4.32 3.07 5.7 5.36-0.55 0.58-1.09 1.16-1.63 1.74 4.81 4.44 11.1 7.22 14.93 12.7 0.53 0.95 1.01 1.92 1.51 2.9-2.37 0.43-4.7 1.05-7.04 1.63 2.06 0.53 4.11 1.11 6.16 1.71-2.08 0.61-4.16 1.25-6.22 1.91 2.12 0.36 4.24 0.73 6.36 1.15-1.74 0.57-3.54 0.95-5.35 1.22-0.72 1.46-1.51 2.89-2.34 4.3 0.96 0.47 1.92 0.94 2.88 1.41-0.66 0.72-1.33 1.44-1.99 2.16 0.55 0.21 1.67 0.63 2.22 0.84-2.23 0.93-3.24 2.9-2.89 5.24 0.99 0.16 1.98 0.34 2.97 0.51-0.68 0.49-1.34 0.99-2.01 1.48-0.17 3.12-0.11 6.25 0 9.37-3.3 0.51-6.65 0.42-9.97 0.76-1.18-3.12-0.48-6.47-0.94-9.69l-1.12-0.76c-0.32 1.54-0.49 3.11-0.39 4.69-1.71-1.17-3.52-3.54-5.85-2.72l-0.51 0.12c-3.67-2.26-8.39-0.81-12.46-0.66l0.7 1.34c0.5 1.52 2.61 1.61 3.66 0.61 0 2.52-0.13 5.04-0.38 7.56-1.24 0.7-2.49 1.39-3.72 2.11 0.17 0.52 0.5 1.55 0.66 2.07-2.28 0.5-4.62 0.61-6.94 0.53 0.36-1.33 1.09-2.84-0.37-3.85 1.52-8.01 3.24-15.99 4.14-24.1 0.51-10.82 0.8-22.03-3.37-32.26 4.21-0.94 7.61-4.06 12.01-4.6-0.8-2.97-1.47-6.57-4.84-7.62 1.34 0.02 2.67 0.03 4.01 0.02-0.12-2.36-1.58-4.51-3.58-5.69-2.32-0.74-4.77-0.92-7.15-1.4-0.38-1.1-0.77-2.2-1.14-3.3 0.84-0.71 1.69-1.41 2.53-2.12-0.91-0.29-1.82-0.58-2.72-0.87 0.95-0.64 1.9-1.28 2.86-1.93-4.75-0.5-9.65 0.33-14.29-1.06 2.21-0.56 4.43-1.07 6.6-1.77-2.23-0.23-4.46-0.3-6.69-0.17-0.8-0.1-2.41-0.29-3.21-0.39 0.63-0.65 1.27-1.3 1.92-1.94-0.11-0.54-0.21-1.08-0.31-1.62 1.37-0.28 2.75-0.55 4.12-0.84-2.21-0.91-4.43-1.82-6.64-2.73 0.93-0.6 1.86-1.21 2.8-1.81-0.75-1.22-1.22-2.7-2.39-3.6-1.91-0.48-3.87-0.69-5.81-1.04 1.93-1.22 4.06-2.06 6.19-2.83-1.8-0.49-3.59-1.01-5.42-1.41 6.16-0.65 12.3-1.87 18.02-4.3z" fill="#bde1b0"/>
 <path d="m192.9 40.86c8-1.17 15.59 2.4 22.38 6.18l-0.75 3.54c-1.66 0.25-3.32 0.46-4.98 0.65 1.82 1.5 2.31 3.83 2.99 5.96 1.14 0.56 2.28 1.11 3.43 1.68-1.93 0.67-3.88 1.26-5.86 1.73 1.71 0.29 3.4 0.66 5.06 1.17-1.6 0.58-3.21 1.11-4.83 1.64 0.83 0.49 1.66 0.98 2.5 1.47-0.86 0.97-1.72 1.93-2.58 2.89 1.78 0 3.56 0.01 5.35 0.04-0.18 1.14-0.39 2.27-0.68 3.39-0.69 0.68-1.39 1.34-2.1 2.01-1.05-0.2-2.1-0.41-3.15-0.6 0.07 1.27 0.24 2.53 0.48 3.78-3.76 0.41-7.61 0.58-11.17 2.02 2.09 0.15 4.19 0.39 6.17 1.12-2.27 0.66-4.59 1.05-6.91 1.47-0.36-1.11-0.71-2.22-1.05-3.33-3.1-0.5-6.24-0.16-9.36-0.17 0.82-1.36 2.51-1.45 3.87-1.91-1.4-0.55-2.79-1.12-4.16-1.7 1.77-0.51 3.56-0.99 5.35-1.45-3-0.84-8.09 0.15-8.77-3.92-1.42-0.5-2.84-1-4.24-1.54 3.35-0.8 6.73-2 8.83-4.91-1.98-0.41-3.95-0.86-5.89-1.41 4.45-0.78 8.91-1.5 13.4-2.05 2.82-5.92 1.12-13.11-3.33-17.75z" fill="#c0e2a7"/>
 <path d="m226.93 45.38c0.81 0.68 1.63 1.37 2.44 2.06 1.06-0.48 2.12-0.97 3.18-1.46 3.48 1.39 6.81 3.17 10.45 4.09 11.41 3.16 23.45 2.2 34.95 4.88-1.67 1.6-3.09 3.43-4.3 5.4-10.55-1.71-21.42-1.31-31.78-4.17-5.74-1.55-10.98-4.4-16.15-7.25 0.4-1.18 0.8-2.37 1.21-3.55z" fill="#cce698"/>
 <path d="m130.23 52.91c10.15-0.84 20.66-1.7 29.7-6.85l0.18 0.18c1.47 1.94 3.64 2.94 6 3.34-4.52 2.58-9.22 4.93-14.22 6.43-6.88 1.98-14.05 2.45-21.14 3.06-0.18-2.05-0.35-4.11-0.52-6.16z" fill="#c3e4ca"/>
 <path d="m215.28 47.04c7.99 4.37 15.7 9.44 24.42 12.25 10.81 3.33 22.25 2.9 33.33 4.66 0.6 0.69 1.21 1.39 1.83 2.09-3.07 2.34-7.02 0.31-10.38 1.75 1.47 0.53 2.95 1.02 4.44 1.49-0.71 0.33-2.14 0.99-2.86 1.32 1.12 0.66 2.24 1.3 3.36 1.96-0.94 0.94-1.88 1.87-2.81 2.82-3.35 0.2-6.72 0.45-10.04-0.17 1.51-0.89 3.03-1.76 4.57-2.6-3.24 0.4-6.5 0.09-9.59-0.97-1.15 2.74-2.21 5.52-3.37 8.27-5.83 0.92-12.13 0.07-17.52 2.93-0.27-0.07-0.82-0.2-1.09-0.27 0.39-1.13 0.78-2.26 1.17-3.38-2.06 0.03-4.12 0.07-6.18 0.13 0.29-0.73 0.58-1.46 0.87-2.19-4.51 1.52-8.97-1.77-10.5-5.93 0.29-1.12 0.5-2.25 0.68-3.39-1.79-0.03-3.57-0.04-5.35-0.04 0.86-0.96 1.72-1.92 2.58-2.89-0.84-0.49-1.67-0.98-2.5-1.47 1.62-0.53 3.23-1.06 4.83-1.64-1.66-0.51-3.35-0.88-5.06-1.17 1.98-0.47 3.93-1.06 5.86-1.73-1.15-0.57-2.29-1.12-3.43-1.68-0.68-2.13-1.17-4.46-2.99-5.96 1.66-0.19 3.32-0.4 4.98-0.65l0.75-3.54z" fill="#cce69f"/>
 <path d="m106.94 57.92c7.19-3.64 15.35-4.55 23.29-5.01 0.17 2.05 0.34 4.11 0.52 6.16-7.44 0.76-15.19 1.24-21.94 4.77-7.64 4.09-12.39 11.71-16.78 18.89-2.2 0.32-4.04 1.51-5.57 3.08-0.2-0.71-0.61-2.12-0.81-2.82 5.48-9.48 11.26-19.75 21.29-25.07z" fill="#bfe3d2"/>
 <path d="m277.95 54.95c6.54 1.54 12.47 5.03 17.06 9.93-0.55 1.99-1.17 4.03-2.6 5.59-4.7-5.65-11.65-8.83-18.76-10.12 1.21-1.97 2.63-3.8 4.3-5.4z" fill="#cee7a6"/>
 <path d="m111.41 66.45c8.95-3.66 18.81-3.66 28.3-4.44 1.83 0.4 3.62 0.92 5.42 1.41-2.13 0.77-4.26 1.61-6.19 2.83 1.94 0.35 3.9 0.56 5.81 1.04 1.17 0.9 1.64 2.38 2.39 3.6-0.94 0.6-1.87 1.21-2.8 1.81 2.21 0.91 4.43 1.82 6.64 2.73-1.37 0.29-2.75 0.56-4.12 0.84 0.1 0.54 0.2 1.08 0.31 1.62-0.65 0.64-1.29 1.29-1.92 1.94 0.8 0.1 2.41 0.29 3.21 0.39-2.03 1.11-4.23 1.86-6.46 2.44 1.66 0.38 3.33 0.77 5 1.14-2.29 0.83-4.58 1.65-6.87 2.44 1.6 0.8 3.21 1.61 4.81 2.41-1.65 0.21-3.3 0.42-4.94 0.63 1.48 0.65 2.96 1.3 4.45 1.96-0.51 0.83-1.02 1.67-1.53 2.5-4.59-0.42-9.24-0.32-13.77 0.6-2.19-0.06-4.33-0.54-6.41-1.22 1.29-0.42 2.6-0.79 3.89-1.23-6.54-2.65-13.63 0.57-20.38-1.1 0.84-0.97 1.68-1.93 2.52-2.91-3.33-0.77-6.66 0.28-9.99 0.38-1.52-0.88-2.82-2.09-4.26-3.08 4.36-7.17 8.92-15.1 16.89-18.73z" fill="#c3e4cf"/>
 <path d="m273.03 63.95c5.04 0.88 10.17 2.46 14.03 5.99 6.12 5.58 10.15 12.97 14.27 20.06-1.49 3.07-2.9 6.82-6.84 7.14-2.45-1.85-4.97-3.94-8.09-4.47-2.11-0.24-4.23 0.24-6.32 0.46-2.73-1.4-5.55-2.62-8.41-3.74-1.47-3.05-3.32-5.89-5.46-8.51 1.15-1.78 2.39-3.5 3.68-5.18-1.1-0.12-2.19-0.24-3.28-0.32 0.93-0.95 1.87-1.88 2.81-2.82-1.12-0.66-2.24-1.3-3.36-1.96 0.72-0.33 2.15-0.99 2.86-1.32-1.49-0.47-2.97-0.96-4.44-1.49 3.36-1.44 7.31 0.59 10.38-1.75-0.62-0.7-1.23-1.4-1.83-2.09z" fill="#d6eaac"/>
 <path d="m295.01 64.88c5.11 5.38 8.89 11.85 12.55 18.26-1.24 1.56-2.5 3.11-3.78 4.64-3.53-5.93-6.81-12.08-11.37-17.31 1.43-1.56 2.05-3.6 2.6-5.59z" fill="#d8ebb6"/>
 <path d="m212.83 73.21c0.71-0.67 1.41-1.33 2.1-2.01 1.53 4.16 5.99 7.45 10.5 5.93-0.29 0.73-0.58 1.46-0.87 2.19 2.06-0.06 4.12-0.1 6.18-0.13-0.39 1.12-0.78 2.25-1.17 3.38 0.27 0.07 0.82 0.2 1.09 0.27-0.21 1.72-0.54 3.41-0.88 5.11-3.62-0.76-6.68-3.6-10.51-3.4-1.93 0.28-2.23 2.62-2.75 4.14 1.01 0.5 2.05 0.95 3.07 1.46-0.38 1.04-0.74 2.09-1.11 3.14 0.64 0.15 1.29 0.3 1.94 0.46 0.16 0.73 0.32 1.47 0.48 2.21 3.38 0.92 6.04 3.28 9.19 4.7-0.62 1.26-0.98 2.77-2.19 3.63-3.86 3.06-6 7.6-9.13 11.3 1.81 1.22 3.41 2.75 4.05 4.91-1.53 0.4-3.06 0.76-4.58 1.17 0.29 0.9 0.6 1.8 0.9 2.71-0.66 0.62-1.33 1.24-1.99 1.86 1.67 0.37 3.31 0.83 4.93 1.38-6.19 0.64-12.42 0.96-18.62 1.53-3.83-5.48-10.12-8.26-14.93-12.7 0.54-0.58 1.08-1.16 1.63-1.74-1.38-2.29-3.14-4.36-5.7-5.36 0.6-0.63 1.2-1.25 1.81-1.87-1.16-1.93-3.72-3.44-3.7-5.83 0.24-4.43 6.59-3.15 7.39-7.35-0.94-0.83-1.88-1.66-2.82-2.5 0.45-0.14 1.34-0.42 1.78-0.56 1.76 1.46 3.69 2.73 6.01 3.04-0.98-0.84-1.97-1.67-2.95-2.5 2.01-0.83 4.03-1.67 6.04-2.53-3.69-0.16-7.57 0.92-11.08-0.67 2.93-0.82 5.91-1.42 8.89-2.01-1.31-0.5-2.6-0.99-3.9-1.48 3.05-0.64 6.07-1.38 9.04-2.36-1.67-0.42-3.34-0.83-5-1.26 0.57-0.12 1.71-0.35 2.28-0.47 2.32-0.42 4.64-0.81 6.91-1.47-1.98-0.73-4.08-0.97-6.17-1.12 3.56-1.44 7.41-1.61 11.17-2.02-0.24-1.25-0.41-2.51-0.48-3.78 1.05 0.19 2.1 0.4 3.15 0.6z" fill="#cbe6b3"/>
 <path d="m251.55 71.64c3.09 1.06 6.35 1.37 9.59 0.97-1.54 0.84-3.06 1.71-4.57 2.6 3.32 0.62 6.69 0.37 10.04 0.17 1.09 0.08 2.18 0.2 3.28 0.32-1.29 1.68-2.53 3.4-3.68 5.18 2.14 2.62 3.99 5.46 5.46 8.51 2.86 1.12 5.68 2.34 8.41 3.74-0.26 1.19-0.49 2.38-0.74 3.57-2.06 0.27-4.12 0.54-6.17 0.81 0.59 0.97 1.18 1.95 1.78 2.92-1.65 2-4.55 0.72-6.57 1.94-0.7 2.05 1.14 4.03 0.93 6.08-1 2.24-3.68 2.39-5.75 2.84 0.19-0.57 0.59-1.73 0.79-2.31-2.34 0.58-4.37 1.88-6.52 2.89-1.48 0.37-2.06-1.51-2.91-2.35-5.87 0.38-10.11-3.96-14.94-6.42-3.46-0.12-6.91-0.54-9.89-2.44-3.15-1.42-5.81-3.78-9.19-4.7-0.16-0.74-0.32-1.48-0.48-2.21-0.65-0.16-1.3-0.31-1.94-0.46 0.37-1.05 0.73-2.1 1.11-3.14-1.02-0.51-2.06-0.96-3.07-1.46 0.52-1.52 0.82-3.86 2.75-4.14 3.83-0.2 6.89 2.64 10.51 3.4 0.34-1.7 0.67-3.39 0.88-5.11 5.39-2.86 11.69-2.01 17.52-2.93 1.16-2.75 2.22-5.53 3.37-8.27z" fill="#c2e295"/>
 <path d="m148.46 80.22c2.23-0.13 4.46-0.06 6.69 0.17-2.17 0.7-4.39 1.21-6.6 1.77 4.64 1.39 9.54 0.56 14.29 1.06-0.96 0.65-1.91 1.29-2.86 1.93 0.9 0.29 1.81 0.58 2.72 0.87-0.84 0.71-1.69 1.41-2.53 2.12 0.37 1.1 0.76 2.2 1.14 3.3 2.38 0.48 4.83 0.66 7.15 1.4 2 1.18 3.46 3.33 3.58 5.69-1.34 0.01-2.67 0-4.01-0.02 3.37 1.05 4.04 4.65 4.84 7.62-4.4 0.54-7.8 3.66-12.01 4.6-0.68-0.75-0.9-2.48-2.3-2.22-3.3-6.45-8.12-13.13-15.64-14.77 0.51-0.83 1.02-1.67 1.53-2.5-1.49-0.66-2.97-1.31-4.45-1.96 1.64-0.21 3.29-0.42 4.94-0.63-1.6-0.8-3.21-1.61-4.81-2.41 2.29-0.79 4.58-1.61 6.87-2.44-1.67-0.37-3.34-0.76-5-1.14 2.23-0.58 4.43-1.33 6.46-2.44z" fill="#c5e4be"/>
 <path d="m74.53 100.63c4.3-5.5 7.39-11.78 11.12-17.64 0.2 0.7 0.61 2.11 0.81 2.82 1.53-1.57 3.37-2.76 5.57-3.08-6.27 11.34-12.55 23.11-22.67 31.54-2.49-0.39-4.99-0.78-7.51-0.89 4.39-4.08 9.17-7.83 12.68-12.75z" fill="#cfe9da"/>
 <path d="m307.56 83.14c5.55 10.92 12.59 21.38 22.36 28.97 3.48 3.17 7.73 5.53 10.84 9.05 0.45 2.71 0.76 5.43 1.09 8.16-8.08-6.98-17.09-12.92-24.32-20.83-5.65-6.14-9.46-13.62-13.75-20.71 1.28-1.53 2.54-3.08 3.78-4.64z" fill="#dbedc1"/>
 <path d="m245.45 86.96c1.46-2.59 4.76-2.4 7.34-2.58 2.05 4.66 7.34 6.2 11.74 7.8-0.78 1.61-1.81 4.89-4.16 3.4-4.83-3.12-9.83-5.95-14.92-8.62z" fill="#d7ebb3"/>
 <path d="m79.47 109.31c5.45-7.77 10.31-15.92 15.05-24.13 1.44 0.99 2.74 2.2 4.26 3.08 3.33-0.1 6.66-1.15 9.99-0.38-0.84 0.98-1.68 1.94-2.52 2.91 6.75 1.67 13.84-1.55 20.38 1.1-1.29 0.44-2.6 0.81-3.89 1.23 2.08 0.68 4.22 1.16 6.41 1.22-15.13 3.99-28.71 12.59-40.03 23.25-1.23-2.01-2.09-4.31-3.66-6.09-1.87-1.04-3.96-1.55-5.99-2.19z" fill="#cee8d8"/>
 <path d="m301.33 90c1.58 2.85 3.28 5.63 4.85 8.49-2.63 0.38-5.23 0.93-7.76 1.73-0.2 1.84 0.63 3.46 1.43 5.05 0.05 2.91-0.53 5.8-0.93 8.68 1.31 0.63 2.01 1.81 1.24 3.16 1.25 0.43 2.54 0.76 3.8 1.19-1.31 0.39-2.62 0.8-3.93 1.21 1.83 0.43 3.65 0.87 5.48 1.32-0.34 0.73-0.67 1.46-1 2.19 4.12 0.59 8.32 0.56 12.41-0.29-0.61-0.29-1.84-0.87-2.45-1.15 0.79-0.91 1.59-1.81 2.39-2.71-1.8-2.92-3.77-5.74-5.47-8.72 0.65-0.12 1.96-0.35 2.61-0.46 6.85 7.67 15.24 13.69 23.14 20.2 2.43 2.21 5.29 4.11 6.97 6.99 0.21 1.15 0.4 2.31 0.59 3.46-2.62-0.26-5.25-0.35-7.87-0.15 1.16 0.71 2.34 1.37 3.52 2.05-0.33 1.56-1.61 3.28-0.52 4.81 0.9 1.25 2.47 1.73 3.74 2.54-1.57 0.32-3.14 0.65-4.7 0.99 1.16 0.66 2.33 1.33 3.49 1.99-0.68 0.66-1.36 1.32-2.03 1.99 1.83 0.59 3.67 1.18 5.52 1.76-0.71 0.37-2.12 1.11-2.82 1.47 2.65 1.7 5.89 1.39 8.89 1.5-1.28 0.36-2.56 0.73-3.84 1.1 2.37 0.6 4.98 1.21 5.99 3.73 0.49 6.24 0.59 12.5 1.27 18.72-0.28 1.26-0.57 2.53-0.88 3.79-3.77 0.17-7.54 0.36-11.29 0.74-0.14 2.15 0.11 4.31 1.8 5.84-4.41 0.43-4.86 5.57-4.08 9.02 0.41 1.35-0.03 2.7-0.4 4 1.06 0.36 2.12 0.72 3.19 1.08-0.84 0.52-1.68 1.04-2.51 1.57 1.08 0.52 2.17 1.03 3.26 1.56-0.67 0.87-1.34 1.75-2.01 2.62 1.4 0.32 2.8 0.62 4.21 0.94-1.49 1.77-3.46 3.27-4.43 5.39 0 3.09-1.6 5.9-1.41 9-0.27 2.92 2.18 5.01 3.27 7.5l-1.3 0.31c-2.05-3.14-4.48-5.97-6.88-8.83-0.65-2.13-0.97-4.35-1.82-6.41-1.44-1.65-4.37-2.35-4.36-4.96-0.34-7.56 3.85-15.37 0.26-22.7-0.62-0.15-1.87-0.45-2.5-0.6-1.61-1.45-3.35-2.76-5.37-3.57 0.64-0.7 1.28-1.41 1.92-2.11-1.21-0.15-2.42-0.29-3.63-0.42 1.25-0.76 2.49-1.53 3.74-2.29-0.86-0.57-1.72-1.13-2.57-1.69 1.5-0.65 3.01-1.31 4.53-1.94 2.19-3.34 0.88-7.41 1.74-11.06 1.66-3.98 4.14-7.62 5.21-11.85-0.37-0.16-1.11-0.47-1.47-0.63-0.59-0.48-1.15-0.98-1.69-1.5-0.27-0.71-0.52-1.42-0.76-2.13-1.35-0.59-2.71-1.14-4.05-1.72 1.3-0.5 2.57-1.08 3.87-1.58-1.52-0.58-3.04-1.14-4.56-1.7 0.86-0.49 1.73-0.97 2.59-1.46-2.63-0.6-5.28-1.08-7.95-1.43 2.1-0.68 4.17-1.46 6.12-2.49-3.7-1.15-7.38 0.63-11.11 0.64-5 0.07-9.98-0.65-14.96-0.96 0.96-0.58 1.93-1.16 2.9-1.74-4.65 0.1-10.41 1.7-14.18-1.9 3.45-0.3 6.93-0.27 10.38-0.69-6.71-0.52-13.45-0.29-20.15-0.99 0.79-2.51 4.76-1.07 6.87-2.05-2.45-0.37-4.9-0.68-7.35-1-0.85-1.73-0.82-3.65-0.42-5.49-0.99-0.57-1.97-1.13-2.95-1.69 1.92-0.27 3.85-0.55 5.78-0.83-1.49-0.61-2.97-1.2-4.45-1.8 0.41-0.29 1.23-0.87 1.64-1.17-0.14-0.82-0.29-1.64-0.43-2.46 1.68-0.56 3.37-1.1 5.06-1.61-1.42-0.46-2.84-0.92-4.25-1.38 4.24-0.76 7.25-3.73 10.85-5.76 0.26-4-1.21-7.8-2.87-11.36 3.02-1.2 5.97-2.57 9-3.75 3.94-0.32 5.35-4.07 6.84-7.14z" fill="#d8ebb7"/>
 <path d="m280.08 93.13c2.09-0.22 4.21-0.7 6.32-0.46 3.12 0.53 5.64 2.62 8.09 4.47-3.03 1.18-5.98 2.55-9 3.75 1.66 3.56 3.13 7.36 2.87 11.36-3.6 2.03-6.61 5-10.85 5.76 1.41 0.46 2.83 0.92 4.25 1.38-1.69 0.51-3.38 1.05-5.06 1.61 0.14 0.82 0.29 1.64 0.43 2.46-0.41 0.3-1.23 0.88-1.64 1.17 1.48 0.6 2.96 1.19 4.45 1.8-1.93 0.28-3.86 0.56-5.78 0.83 0.98 0.56 1.96 1.12 2.95 1.69-0.4 1.84-0.43 3.76 0.42 5.49 2.45 0.32 4.9 0.63 7.35 1-2.11 0.98-6.08-0.46-6.87 2.05 6.7 0.7 13.44 0.47 20.15 0.99-3.45 0.42-6.93 0.39-10.38 0.69 3.77 3.6 9.53 2 14.18 1.9-0.97 0.58-1.94 1.16-2.9 1.74 4.98 0.31 9.96 1.03 14.96 0.96 3.73-0.01 7.41-1.79 11.11-0.64-1.95 1.03-4.02 1.81-6.12 2.49 2.67 0.35 5.32 0.83 7.95 1.43-0.86 0.49-1.73 0.97-2.59 1.46 1.52 0.56 3.04 1.12 4.56 1.7-1.3 0.5-2.57 1.08-3.87 1.58 1.34 0.58 2.7 1.13 4.05 1.72 0.24 0.71 0.49 1.42 0.76 2.13-1.49 3.04-2.93 6.1-4.45 9.13-2.14-2.67-2.39-7.48-6.01-8.55-0.89-0.28-1.79-0.52-2.67-0.81-4.35-4.03-10.18-6.35-16.07-6.72-3.86 0.33-7.75-0.58-11.57 0.34-4.74 1.02-9.39-1.66-14.13-0.47-6.14 1.39-12.46 0.3-18.61 1.5 0.37 0.91 0.75 1.81 1.12 2.72-1.34 0.05-2.68 0.1-4.01 0.15 0.35-0.63 0.7-1.27 1.06-1.9-3.44-0.9-7.01-1.07-10.54-0.67 0.96-1.05 1.93-2.11 2.87-3.18-2.22 0.17-4.43 0.51-6.53 1.27-5.51 2-11.46 2.26-17.03 4.07-1.24 0.48-1.77 1.9-2.68 2.79l-0.29 0.32c-1.48-0.15-2.95-0.25-4.43-0.29 0.66-0.71 1.33-1.42 1.99-2.13-2.09-0.4-4.18-0.81-6.26-1.22 0.72-1.62 1.94-3.17 2-5-0.53-0.94-1.23-1.77-1.85-2.64 0.54-0.67 1.09-1.35 1.64-2.02-1.28-0.47-2.57-0.94-3.85-1.41 1.8-0.53 3.6-1.05 5.41-1.54-2.04-0.35-4.07-0.75-6.08-1.2-0.43-1.21-0.83-2.43-1.19-3.66 0.53-0.33 1.58-1 2.11-1.33-1.61-0.44-3.22-0.85-4.85-1.14-0.5-0.98-0.98-1.95-1.51-2.9 6.2-0.57 12.43-0.89 18.62-1.53-1.62-0.55-3.26-1.01-4.93-1.38 0.66-0.62 1.33-1.24 1.99-1.86-0.3-0.91-0.61-1.81-0.9-2.71 1.52-0.41 3.05-0.77 4.58-1.17-0.64-2.16-2.24-3.69-4.05-4.91 3.13-3.7 5.27-8.24 9.13-11.3 1.21-0.86 1.57-2.37 2.19-3.63 2.98 1.9 6.43 2.32 9.89 2.44 4.83 2.46 9.07 6.8 14.94 6.42 0.85 0.84 1.43 2.72 2.91 2.35 2.15-1.01 4.18-2.31 6.52-2.89-0.2 0.58-0.6 1.74-0.79 2.31 2.07-0.45 4.75-0.6 5.75-2.84 0.21-2.05-1.63-4.03-0.93-6.08 2.02-1.22 4.92 0.06 6.57-1.94-0.6-0.97-1.19-1.95-1.78-2.92 2.05-0.27 4.11-0.54 6.17-0.81 0.25-1.19 0.48-2.38 0.74-3.57z" fill="#cce5a2"/>
 <path d="m129.15 94.34c4.53-0.92 9.18-1.02 13.77-0.6 7.52 1.64 12.34 8.32 15.64 14.77 2.88 6.07 3.82 12.85 4.14 19.49 0.68 23.51-6.04 46.42-13.27 68.54-6.03 16.5-12.44 32.86-18.6 49.31 0.89-0.16 1.78-0.32 2.67-0.48 4.22-0.53 8.39-1.65 12.66-1.58 0.15 1.4 0.2 2.81 0.16 4.22-1.42 3.57-4.03 7.86-8.28 8.11-3.18 0.42-6.37 0.83-9.54 1.34-5.49 14.83-5.71 30.88-7.38 46.44-0.69 5.82-0.56 12.04-3.4 17.33-4.07 0.48-7.04-2.58-9.69-5.18-5.34-5.53-9.73-11.88-14.01-18.24-5.16-8.09-10.68-16.34-12.8-25.83-1.48-6.18 2.14-12.19 7.16-15.53 0.32-0.11 0.97-0.34 1.29-0.45 10.4-3.66 21.27-5.73 31.98-8.24 1.14-6.31 2.67-12.54 4.57-18.67 1.78-5.66 3.23-11.43 5.27-17.01 5.28-16.47 10.82-32.88 14.98-49.68 3.17-13.5 6.13-27.45 4.3-41.37-0.96-4.92-2.55-10.58-7.08-13.37-5.68-3.16-12.64-2.12-18.73-0.86-13.32 3.67-24.86 11.99-34.74 21.42-7.57 7.61-14.31 17.58-13.53 28.8-0.11 4.04 1.89 7.58 3.52 11.13 0.56 2.14-1.86 3.09-3.23 4.07-0.71-0.1-2.13-0.3-2.84-0.4-5.26-8.94-5.18-20.11-1.87-29.73 3.88-9.22 9.77-17.46 16.85-24.5 11.32-10.66 24.9-19.26 40.03-23.25z" fill="#fff"/>
 <path d="m298.42 100.22c2.53-0.8 5.13-1.35 7.76-1.73 2.52 3.79 5.16 7.5 7.82 11.2-0.65 0.11-1.96 0.34-2.61 0.46 1.7 2.98 3.67 5.8 5.47 8.72-0.8 0.9-1.6 1.8-2.39 2.71 0.61 0.28 1.84 0.86 2.45 1.15-4.09 0.85-8.29 0.88-12.41 0.29 0.33-0.73 0.66-1.46 1-2.19-1.83-0.45-3.65-0.89-5.48-1.32 1.31-0.41 2.62-0.82 3.93-1.21-1.26-0.43-2.55-0.76-3.8-1.19 0.77-1.35 0.07-2.53-1.24-3.16 0.4-2.88 0.98-5.77 0.93-8.68-0.8-1.59-1.63-3.21-1.43-5.05z" fill="#dcedc2"/>
 <path d="m124.96 106.8c6.09-1.26 13.05-2.3 18.73 0.86-7.4-0.3-15.14-1.11-22.05 2.25-8.15 2.69-15.26 7.53-21.98 12.75-7.73 5.21-13.91 12.52-18.28 20.72-3.02 5.59-3.63 12.2-2.53 18.39 0.83 2.83 2.28 5.44 2.95 8.31-0.31 3.32-4.48 3.71-7.05 4.15 0.72-0.69 1.46-1.36 2.23-2.01 1.37-0.98 3.79-1.93 3.23-4.07-1.63-3.55-3.63-7.09-3.52-11.13-0.78-11.22 5.96-21.19 13.53-28.8 9.88-9.43 21.42-17.75 34.74-21.42z" fill="#b4c7b1"/>
 <path d="m228.19 107.36c2.49-1.89 5.72-1.83 8.64-1.22-0.02 1.5-0.46 2.93-0.89 4.35 1.31 1.53-0.69 2.88-1.71 3.8-3.3 0.92-7.1 1.75-10.27-0.02 1.96-0.28 3.93-0.45 5.91-0.61-0.54-2.11-1.2-4.18-1.68-6.3z" fill="#d9ecc0"/>
 <path d="m121.64 109.91c6.91-3.36 14.65-2.55 22.05-2.25 4.53 2.79 6.12 8.45 7.08 13.37 1.83 13.92-1.13 27.87-4.3 41.37-4.16 16.8-9.7 33.21-14.98 49.68-0.91-0.95-1.81-1.88-2.71-2.82 0.28-0.88 0.56-1.76 0.83-2.63 0.52-2.16 0.87-4.39 0.64-6.62-2.27-4.63-7.21-6.74-10.28-10.62 0.56-0.91 0.99-1.89 1.43-2.86-2.1-2.34-4.92-3.72-7.84-4.74 0.34-0.98 0.67-1.95 1.01-2.92-0.67-0.71-1.33-1.41-1.99-2.12 2.9-0.19 5.86-0.2 8.65-1.14-2.64-0.51-5.3-0.94-7.94-1.42 0.61-1.27 0.93-2.88 2.19-3.7 3.03-0.77 6.17-1.01 9.22-1.67-0.41-0.99-0.82-1.96-1.23-2.94 3.77-0.05 7.59-0.03 11.26-1.01-0.49-0.29-1.48-0.85-1.97-1.13 0.18-0.64 0.37-1.29 0.55-1.93-1.91-0.35-3.82-0.73-5.72-1.14-0.61-3.54-3.32-5.56-6.31-7.09 0.82-1.76 1.22-3.66 1.01-5.6 0.55-0.77 1.09-1.54 1.62-2.32-1.84-1.23-3.92-1.98-6.08-2.4-1.15-3.53-4.09-5.48-7.57-6.35 2.03-2.66 4.15-5.26 6.31-7.83-3.9 0.01-9.07-0.11-10.75-4.4 3.14-0.55 6.33-0.82 9.47-1.37 0.16-2.21 0.32-4.43 0.46-6.65 3.4-0.14 6.8-0.28 10.15-0.88-0.87-0.86-1.75-1.73-2.62-2.59 3.2-0.95 6.53-1.31 9.84-1.72-3.83-0.52-7.69-0.78-11.48-1.56z" fill="#bfe2b9"/>
 <path d="m158.56 108.51c1.4-0.26 1.62 1.47 2.3 2.22 4.17 10.23 3.88 21.44 3.37 32.26-0.9 8.11-2.62 16.09-4.14 24.1-2.51 9.06-4.9 18.15-7.58 27.17-1.1 5.28-4.06 9.87-5.56 15.01-2.57 5.99-4.84 12.1-7.21 18.17-2.29 5.9-4.8 11.75-6.24 17.93-0.89 0.16-1.78 0.32-2.67 0.48 6.16-16.45 12.57-32.81 18.6-49.31 7.23-22.12 13.95-45.03 13.27-68.54-0.32-6.64-1.26-13.42-4.14-19.49z" fill="#a5c19f"/>
 <path d="m79.19 109.23l0.28 0.08c2.03 0.64 4.12 1.15 5.99 2.19 1.57 1.78 2.43 4.08 3.66 6.09-7.08 7.04-12.97 15.28-16.85 24.5-1.38 0.08-2.75 0.15-4.12 0.24-0.83 1.03-1.38 2.59-2.82 2.9-4.64 1.18-9.52 1.39-14.25 0.64 0.86-0.94 1.74-1.86 2.61-2.78-3.21 0-6.42 0.01-9.63-0.04 1.92-3.85 4.89-7.07 8.06-9.93 8.94-8.06 19.37-14.5 27.07-23.89z" fill="#d9eddc"/>
 <path d="m99.66 122.66c6.72-5.22 13.83-10.06 21.98-12.75 3.79 0.78 7.65 1.04 11.48 1.56-3.31 0.41-6.64 0.77-9.84 1.72 0.87 0.86 1.75 1.73 2.62 2.59-3.35 0.6-6.75 0.74-10.15 0.88-0.14 2.22-0.3 4.44-0.46 6.65-3.14 0.55-6.33 0.82-9.47 1.37 1.68 4.29 6.85 4.41 10.75 4.4-2.16 2.57-4.28 5.17-6.31 7.83 3.48 0.87 6.42 2.82 7.57 6.35 2.16 0.42 4.24 1.17 6.08 2.4-0.53 0.78-1.07 1.55-1.62 2.32-2.67 1.3-4.99 3.16-6.71 5.59 1.52 0.62 3.04 1.25 4.55 1.91-3.11 0.59-6.27 0.94-9.44 1.03 0.25-0.97 0.5-1.93 0.75-2.89-4.79-1.6-9.95-0.53-14.7 0.7-0.23 0.74-0.45 1.49-0.68 2.24-1.46 0.31-2.93 0.59-4.39 0.9-0.47 1.05-0.95 2.11-1.42 3.16-3.79 0.48-7.61 0.69-11.4 1.15-1.1-6.19-0.49-12.8 2.53-18.39 4.37-8.2 10.55-15.51 18.28-20.72z" fill="#cfe8c9"/>
 <path d="m40.95 131.63c6.2-6.86 13.27-13.09 20.9-18.25 2.52 0.11 5.02 0.5 7.51 0.89-8.13 7.57-17.87 13.4-24.94 22.12l-2.61-1.32c-0.29-1.14-0.57-2.29-0.86-3.44z" fill="#ddefe1"/>
 <path d="m340.76 121.16c2.38 1.18 4.17 3.18 6.06 4.98 2.94 2.92 6.14 5.72 8.09 9.44-0.56 0.18-1.7 0.53-2.26 0.71 0.45 2.13 0.69 4.29 0.57 6.47-3.51-4.71-6.94-9.53-11.37-13.44-0.33-2.73-0.64-5.45-1.09-8.16z" fill="#ecf6de"/>
 <path d="m33.89 143.85c1.59-4.45 3.97-8.63 7.06-12.22 0.29 1.15 0.57 2.3 0.86 3.44l2.61 1.32c-4.09 5.32-6.38 11.77-7.73 18.28-1.72 10.64-1.02 21.49-2.72 32.13-1.07 0.28-2.14 0.57-3.22 0.87-0.92 1.84-1.84 3.68-2.62 5.59 0.24-5.54 1.33-11.02 1.42-16.57 1.01-10.99 0.99-22.22 4.34-32.84z" fill="#e0f0d5"/>
 <path d="m197.93 133.68c2.34-0.58 4.67-1.2 7.04-1.63 1.63 0.29 3.24 0.7 4.85 1.14-0.53 0.33-1.58 1-2.11 1.33 0.36 1.23 0.76 2.45 1.19 3.66 2.01 0.45 4.04 0.85 6.08 1.2-1.81 0.49-3.61 1.01-5.41 1.54 1.28 0.47 2.57 0.94 3.85 1.41-0.55 0.67-1.1 1.35-1.64 2.02 0.62 0.87 1.32 1.7 1.85 2.64-0.06 1.83-1.28 3.38-2 5 2.08 0.41 4.17 0.82 6.26 1.22-0.66 0.71-1.33 1.42-1.99 2.13-3.08 0.38-6.18 0.53-9.28 0.51-0.1 6.05-0.1 12.11-0.1 18.16 0.05 1.54-0.15 3.26 0.87 4.57 0.41 0.39 1.25 1.17 1.66 1.57 3.49 0.3 7 0.14 10.5 0.04 0.26 2.95-0.35 5.89-2.6 7.98-2.11-0.1-4.54 0.74-6.41-0.6-2.53-1.78-5.53-2.56-8.52-3.12 2.04-0.29 4.09-0.6 6.13-0.92-2.94-0.67-5.89-1.3-8.82-1.95 1.09-0.69 2.19-1.38 3.29-2.07-0.3-0.17-0.9-0.5-1.2-0.67-0.43-5.15-0.83-10.36-0.07-15.5 0.25-2.31 0.49-5.32-1.89-6.64-0.44-0.27-1.31-0.82-1.74-1.09 0.67-0.49 1.33-0.99 2.01-1.48-0.99-0.17-1.98-0.35-2.97-0.51-0.35-2.34 0.66-4.31 2.89-5.24-0.55-0.21-1.67-0.63-2.22-0.84 0.66-0.72 1.33-1.44 1.99-2.16-0.96-0.47-1.92-0.94-2.88-1.41 0.83-1.41 1.62-2.84 2.34-4.3 1.81-0.27 3.61-0.65 5.35-1.22-2.12-0.42-4.24-0.79-6.36-1.15 2.06-0.66 4.14-1.3 6.22-1.91-2.05-0.6-4.1-1.18-6.16-1.71z" fill="#bbe09d"/>
 <path d="m352.65 136.29c0.56-0.18 1.7-0.53 2.26-0.71 7.37 11.74 7.44 26.07 8.42 39.44 0.14 6.08 1.09 12.09 1.49 18.16-1.67-0.05-3.33-0.1-4.98-0.15-3.05-16.65-1.03-34.07-6.62-50.27 0.12-2.18-0.12-4.34-0.57-6.47z" fill="#e1efc7"/>
 <path d="m344.11 136.88c7.44 7 9.46 17.46 9.96 27.24-1.01-2.52-3.62-3.13-5.99-3.73 1.28-0.37 2.56-0.74 3.84-1.1-3-0.11-6.24 0.2-8.89-1.5 0.7-0.36 2.11-1.1 2.82-1.47-1.85-0.58-3.69-1.17-5.52-1.76 0.67-0.67 1.35-1.33 2.03-1.99-1.16-0.66-2.33-1.33-3.49-1.99 1.56-0.34 3.13-0.67 4.7-0.99-1.27-0.81-2.84-1.29-3.74-2.54-1.09-1.53 0.19-3.25 0.52-4.81-1.18-0.68-2.36-1.34-3.52-2.05 2.62-0.2 5.25-0.11 7.87 0.15-0.19-1.15-0.38-2.31-0.59-3.46z" fill="#e3f0c9"/>
 <path d="m68.15 142.33c1.37-0.09 2.74-0.16 4.12-0.24-3.31 9.62-3.39 20.79 1.87 29.73 0.71 0.1 2.13 0.3 2.84 0.4-0.77 0.65-1.51 1.32-2.23 2.01-2.5 0.32-5.02 0.43-7.52 0.68 1.08-0.56 2.11-1.2 2.98-2.05-2.13-0.88-3.84 0.6-5.46 1.77-2.5 2.03-5.81 2.42-8.73 3.56 0.84 0.91 1.68 1.82 2.51 2.73-2.45 0.58-4.89 1.21-7.34 1.79-4.47 0.73-9.3 1.37-12.61 4.8 0.54 1.61 1.08 3.22 1.64 4.83-0.88 2.06-2.21 3.91-4.15 5.09-0.65-1.68 0.07-3.43 0.27-5.11 2.2-11.99 1.73-24.27 3.83-36.27 0.3-4.55 1.54-9.06 3.89-13 3.21 0.05 6.42 0.04 9.63 0.04-0.87 0.92-1.75 1.84-2.61 2.78 4.73 0.75 9.61 0.54 14.25-0.64 1.44-0.31 1.99-1.87 2.82-2.9z" fill="#d9eccc"/>
 <path d="m240.33 148.45c2.1-0.76 4.31-1.1 6.53-1.27-0.94 1.07-1.91 2.13-2.87 3.18 3.53-0.4 7.1-0.23 10.54 0.67-0.36 0.63-0.71 1.27-1.06 1.9 1.33-0.05 2.67-0.1 4.01-0.15-0.37-0.91-0.75-1.81-1.12-2.72 6.15-1.2 12.47-0.11 18.61-1.5 4.74-1.19 9.39 1.49 14.13 0.47 3.82-0.92 7.71-0.01 11.57-0.34 5.89 0.37 11.72 2.69 16.07 6.72 2 5.42 5.79 10.3 6.46 16.11h-1.13c-3.39-0.32-7.2 0.34-10.08-1.85 1.38-0.64 2.78-1.27 4.18-1.9-1.54 0.02-3.07 0.05-4.6 0.07 0.43-2.4 1.78-5.6-0.58-7.44l-1.14-1c-0.91-0.88-1.77-1.81-2.73-2.62-2.82-0.5-5.73-0.26-8.58-0.22-0.18 0.27-0.55 0.81-0.73 1.08-3.59-0.19-7.2-0.28-10.78 0.21 0.88-0.86 1.76-1.72 2.64-2.57-4.09 0.3-8.23 0.02-12.26 0.88 0.31 1 0.62 2 0.94 3-2.24 0.54-4.56 0.36-6.67-0.53-2.84-3.74-9.3-3.68-11.38 0.8-1.91 0.39-3.84 0.68-5.77 0.91 0.03-0.62 0.1-1.84 0.14-2.45 0-0.27 0.01-0.8 0.01-1.06-0.16-0.15-0.49-0.44-0.65-0.58-0.33-0.25-0.99-0.76-1.32-1.02-3.96 0.07-7.91 0.66-11.88 0.49-0.09 0.63-0.28 1.9-0.38 2.53-1.77-0.34-3.55-0.63-5.29-1.09-0.46-0.27-1.36-0.81-1.82-1.08l-1.52-1.02c-1.08 2.33-1.81 4.8-2.48 7.27-1.46-2.24-1.33-6.2-4.5-6.63 0.02 0.71 0.05 2.13 0.06 2.84-1.59-0.84-3.03-1.94-4.28-3.23 0.91-0.89 1.44-2.31 2.68-2.79 5.57-1.81 11.52-2.07 17.03-4.07z" fill="#cbe487"/>
 <path d="m115.58 153.57c1.72-2.43 4.04-4.29 6.71-5.59 0.21 1.94-0.19 3.84-1.01 5.6 2.99 1.53 5.7 3.55 6.31 7.09 1.9 0.41 3.81 0.79 5.72 1.14-0.18 0.64-0.37 1.29-0.55 1.93 0.49 0.28 1.48 0.84 1.97 1.13-3.67 0.98-7.49 0.96-11.26 1.01 0.41 0.98 0.82 1.95 1.23 2.94-3.05 0.66-6.19 0.9-9.22 1.67-1.26 0.82-1.58 2.43-2.19 3.7 2.64 0.48 5.3 0.91 7.94 1.42-2.79 0.94-5.75 0.95-8.65 1.14-3.08 0.32-5.29-1.93-7.76-3.3-3.11-0.44-6.26-0.27-9.38-0.43 0.34-0.76 0.69-1.52 1.04-2.27-3.17 1.98-6.76 2.99-10.32 3.99-2.74 3.09-6.24 5.66-10.35 6.51-3.75 0.35-7.53 0.35-11.25 1.02 0.38 0.66 0.77 1.33 1.15 2-2.05 1.1-4.28 1.21-5.9-0.64-2.82-0.47-5.86 0.33-8.62-0.92 2.45-0.58 4.89-1.21 7.34-1.79-0.83-0.91-1.67-1.82-2.51-2.73 2.92-1.14 6.23-1.53 8.73-3.56 1.62-1.17 3.33-2.65 5.46-1.77-0.87 0.85-1.9 1.49-2.98 2.05 2.5-0.25 5.02-0.36 7.52-0.68 2.57-0.44 6.74-0.83 7.05-4.15-0.67-2.87-2.12-5.48-2.95-8.31 3.79-0.46 7.61-0.67 11.4-1.15 0.47-1.05 0.95-2.11 1.42-3.16 1.46-0.31 2.93-0.59 4.39-0.9 0.23-0.75 0.45-1.5 0.68-2.24 4.75-1.23 9.91-2.3 14.7-0.7-0.25 0.96-0.5 1.92-0.75 2.89 3.17-0.09 6.33-0.44 9.44-1.03-1.51-0.66-3.03-1.29-4.55-1.91z" fill="#cde7bb"/>
 <path d="m206.62 155.85c3.1 0.02 6.2-0.13 9.28-0.51 1.48 0.04 2.95 0.14 4.43 0.29-3.46 2.45-8.03 1.28-11.98 1.92 0 2.94 0.02 5.88 0.07 8.82 3.06-0.24 6.13-0.34 9.21-0.38l0.59 1.42c-3.19 0.39-6.41 0.52-9.63 0.63-0.13 2.89-0.15 5.78-0.1 8.68l1.53-0.05c1.68-0.08 3.36-0.13 5.05-0.16 0.57 0.02 1.72 0.05 2.3 0.07 0.36 0.29 1.08 0.86 1.44 1.15-3.62 1.47-7.63 0.41-11.42 0.85-1.02-1.31-0.82-3.03-0.87-4.57 0-6.05 0-12.11 0.1-18.16z" fill="#fff"/>
 <path d="m220.33 155.63l0.29-0.32c1.25 1.29 2.69 2.39 4.28 3.23 0.06 2.07 0.11 4.14 0.12 6.21-2.49 0.24-4.95 0.71-7.39 1.24-3.08 0.04-6.15 0.14-9.21 0.38-0.05-2.94-0.07-5.88-0.07-8.82 3.95-0.64 8.52 0.53 11.98-1.92z" fill="#b8de87"/>
 <path d="m240.83 155.72c3.97 0.17 7.92-0.42 11.88-0.49 0.33 0.26 0.99 0.77 1.32 1.02-3.77 1.12-7.73 1.02-11.62 1.21-0.11 2.99-0.11 5.98-0.03 8.97l1.2-0.1c2.9 0.23 6.7-1.67 8.89 0.92-3.24 0.73-6.58 0.62-9.87 0.78-0.14 2.89-0.16 5.78-0.1 8.67l1.36-0.07c2.58-0.11 5.17-0.3 7.75-0.02 0.16 0.42 0.48 1.27 0.65 1.69-3.83 0.15-7.65 0.09-11.47 0.12-0.65-6.7-0.12-13.45-0.34-20.17 0.1-0.63 0.29-1.9 0.38-2.53z" fill="#fff"/>
 <path d="m277.41 156.16c4.03-0.86 8.17-0.58 12.26-0.88-0.88 0.85-1.76 1.71-2.64 2.57 3.58-0.49 7.19-0.4 10.78-0.21 0.69 6.96 0.17 13.96 0.62 20.93 2.36 2.7 6.41 1.67 9.51 1.17 3.9-0.8 5.91-6.18 2.78-9.01-0.49-0.75-0.98-1.5-1.5-2.21 1.4-2.48 2.55-5.23 1.77-8.12 2.36 1.84 1.01 5.04 0.58 7.44 1.53-0.02 3.06-0.05 4.6-0.07-1.4 0.63-2.8 1.26-4.18 1.9 2.88 2.19 6.69 1.53 10.08 1.85-2.39 3.93-4.62 7.99-6.29 12.29 0.05 1.53 0.47 3.02 0.76 4.52-1.1 0.34-2.19 0.68-3.28 1.02 0.79 1.85 1.83 3.57 3.07 5.15-1.62 2.53-3.28 5.03-4.98 7.5-3.74 1.77-7.07 4.52-11.42 4.62 2.08 0.46 4.12 1.05 6.13 1.74-1.63 0.7-3.27 1.39-4.91 2.07 1.59 0.65 3.18 1.3 4.78 1.94-2.06 0.27-4.11 0.59-6.14 0.99 1.59 1.01 3.35 1.69 5.15 2.23-1.18 0.27-2.35 0.55-3.51 0.83-0.93 1.38-1.43 3.5-3.37 3.71-2.34 0.07-4.24-1.6-6.21-2.61-0.79-3.24-2.53-6.13-4.24-8.95 0.55-0.39 1.67-1.17 2.23-1.56-2.35-0.54-4.74-0.72-7.11-1.09 3.34-1.39 7.01-1.48 10.45-2.51-2.74-0.4-5.5-0.65-8.26-0.8 2.94-0.56 6.95 0.19 8.36-3.13-4.03 0.55-8.4 1.81-12.27-0.05-1.31-5.04-7.79-7.19-11.92-4.02 1.08 0.65 2.17 1.29 3.27 1.93-0.8 0.74-1.62 1.45-2.4 2.2 1.27 0.28 2.55 0.56 3.84 0.84-1.08 0.34-2.16 0.69-3.23 1.03-0.53 1.23-1.02 2.47-1.49 3.73 0.13-3.04 0.98-6.85-1.86-8.95-1.64-3.59-4.55-8.06-9.2-6.58-3.11 3.11-4.93 7.33-7.54 10.86-2.33 3.02-2.73 6.91-3.08 10.58-4.79-1.19-8.58-4.65-13.4-5.77 4.22-4.3 8.88-8.15 13.95-11.41 2.12-1.06 1.69-3.7 2-5.65-3.01 1.07-5.86 2.51-8.71 3.94-2.26 1.28-4.89 0.16-7.31 0.16-2.27-0.4-4.24 0.96-6.23 1.79-0.23 0.1-0.67 0.28-0.9 0.38 0.01-2.09-1.07-3.74-2.61-5.05 1.23-0.04 2.46-0.08 3.7-0.12-0.75-1.96-2.1-3.88-2.04-6.02 1.37-2.34 3.9-4.28 3.47-7.29 0.48-2.86-1.19-6.83 1.89-8.62-0.05 3.6-0.35 7.19-0.26 10.78 0.39 0.16 1.18 0.49 1.58 0.65 0.45 0.17 1.37 0.53 1.83 0.7 0.61-7.43 0.92-14.9 0.8-22.36 1.74 0.46 3.52 0.75 5.29 1.09 0.22 6.72-0.31 13.47 0.34 20.17 3.82-0.03 7.64 0.03 11.47-0.12-0.17-0.42-0.49-1.27-0.65-1.69-2.58-0.28-5.17-0.09-7.75 0.02 0.18-2.35 0.39-4.68 0.65-7.02 2.82-0.19 5.64-0.44 8.45-0.76-0.12-0.4-0.37-1.2-0.49-1.6-2.19-2.59-5.99-0.69-8.89-0.92 0.07-2.35 0.25-4.68 0.56-7.01 3.51-0.45 7.04-0.8 10.53-1.43-0.04 0.61-0.11 1.83-0.14 2.45 1.93-0.23 3.86-0.52 5.77-0.91-0.59 2.02-1.16 4.3 0.16 6.18 2.62 2.51 6.65 2.38 9.5 4.49 1.11 1.86 1.28 4.72-0.59 6.17-2.16 1.41-5.43 1.49-7.33-0.41-1.02-1.42-0.55-4.51-3.06-3.87 0.06 2.48 0.93 5.75 3.8 6.19 3.34 0.95 7.64 0.41 9.39-2.97 1.52-2.06 0.41-4.68-0.88-6.54-2.57-1.8-5.88-2.07-8.69-3.42 0.56-3.49 2.5-6.27 5.9-7.47 1.13 1.57 1.66 3.44 2.22 5.27 2.16-0.32 1.32-3 0.96-4.42 2.11 0.89 4.43 1.07 6.67 0.53-0.32-1-0.63-2-0.94-3z" fill="#c1e072"/>
 <path d="m316.74 155.41c0.88 0.29 1.78 0.53 2.67 0.81 1.45 3.65 2.95 7.3 5.02 10.66 0.25-0.53 0.74-1.58 0.99-2.11 1.52-3.03 2.96-6.09 4.45-9.13 0.54 0.52 1.1 1.02 1.69 1.5-1.82 4.22-4.42 8.03-6.44 12.14-0.3 3.22 0.35 6.51-0.61 9.68-2.31-1.85-1.29-4.93-1.31-7.44-0.67-5.81-4.46-10.69-6.46-16.11z" fill="#fff"/>
 <path d="m166.48 156.72c4.07-0.15 8.79-1.6 12.46 0.66-1.7 0.42-3.44 0.61-5.2 0.59-0.06 4.75 0.09 9.5-0.21 14.25-0.18 2.42 0.24 5.05-1.21 7.18-0.99-1.99-0.77-4.22-0.7-6.35 0.29-4.99 0.02-9.99 0.22-14.98l-0.99-0.08c-1.22-0.13-2.45-0.11-3.67 0.07l-0.7-1.34z" fill="#fff"/>
 <path d="m185.3 159.98c-0.1-1.58 0.07-3.15 0.39-4.69l1.12 0.76c0.46 3.22-0.24 6.57 0.94 9.69 3.32-0.34 6.67-0.25 9.97-0.76-0.11-3.12-0.17-6.25 0-9.37 0.43 0.27 1.3 0.82 1.74 1.09-0.07 6.08 0.09 12.17-0.05 18.25 0.06 1.7-0.44 3.34-1.45 4.72-1.52-3.68-0.08-7.76-0.45-11.62v-1.07c-3.32-0.04-6.64 0.09-9.95 0.29 0.15 3.81 0.44 7.65-0.21 11.43-0.41-0.38-1.23-1.16-1.64-1.54 0.09-5.73-0.03-11.46-0.41-17.18z" fill="#fff"/>
 <path d="m224.84 155.7c3.17 0.43 3.04 4.39 4.5 6.63 0.67-2.47 1.4-4.94 2.48-7.27l1.52 1.02c-0.12 7.57-0.08 15.21-0.81 22.74-0.4-0.16-1.19-0.49-1.58-0.65-0.09-3.59 0.21-7.18 0.26-10.78 0.03-0.8 0.08-2.41 0.1-3.21l-1.39 0.89-1.15 0.73c-0.58-1.08-1.16-2.15-1.74-3.22-0.17 5.3 0.26 10.62-0.33 15.9-0.49-0.13-1.47-0.41-1.97-0.55-0.2-4.4 0.34-8.79 0.29-13.18-0.01-2.07-0.06-4.14-0.12-6.21-0.01-0.71-0.04-2.13-0.06-2.84z" fill="#fff"/>
 <path d="m233.34 156.08c0.46 0.27 1.36 0.81 1.82 1.08 0.12 7.46-0.19 14.93-0.8 22.36-0.46-0.17-1.38-0.53-1.83-0.7 0.73-7.53 0.69-15.17 0.81-22.74z" fill="#afc77d"/>
 <path d="m254.03 156.25c0.16 0.14 0.49 0.43 0.65 0.58 0 0.26-0.01 0.79-0.01 1.06-3.49 0.63-7.02 0.98-10.53 1.43-0.31 2.33-0.49 4.66-0.56 7.01l-1.2 0.1c-0.08-2.99-0.08-5.98 0.03-8.97 3.89-0.19 7.85-0.09 11.62-1.21z" fill="#b9cc8b"/>
 <path d="m260.3 159.43c2.08-4.48 8.54-4.54 11.38-0.8 0.36 1.42 1.2 4.1-0.96 4.42-0.56-1.83-1.09-3.7-2.22-5.27-4.33-2.5-8.93 3.89-5.9 7.47 2.81 1.35 6.12 1.62 8.69 3.42 1.29 1.86 2.4 4.48 0.88 6.54-1.75 3.38-6.05 3.92-9.39 2.97-2.87-0.44-3.74-3.71-3.8-6.19 2.51-0.64 2.04 2.45 3.06 3.87 1.9 1.9 5.17 1.82 7.33 0.41 1.87-1.45 1.7-4.31 0.59-6.17-2.85-2.11-6.88-1.98-9.5-4.49-1.32-1.88-0.75-4.16-0.16-6.18z" fill="#fff"/>
 <path d="m298.54 156.56c2.85-0.04 5.76-0.28 8.58 0.22 0.96 0.81 1.82 1.74 2.73 2.62 0.59 2.72-0.31 5.33-2.04 7.41 0.35 0.43 1.05 1.28 1.41 1.71 0.52 0.71 1.01 1.46 1.5 2.21 0.24 2.57-0.16 5.9-2.82 7.09-3 1.18-6.33 0.49-9.47 0.75-0.45-6.97 0.07-13.97-0.62-20.93 0.18-0.27 0.55-0.81 0.73-1.08z" fill="#fff"/>
 <path d="m319.41 156.22c3.62 1.07 3.87 5.88 6.01 8.55-0.25 0.53-0.74 1.58-0.99 2.11-2.07-3.36-3.57-7.01-5.02-10.66z" fill="#bfd48f"/>
 <path d="m179.45 157.26c2.33-0.82 4.14 1.55 5.85 2.72 0.38 5.72 0.5 11.45 0.41 17.18 0.41 0.38 1.23 1.16 1.64 1.54 0.22 0.22 0.67 0.65 0.89 0.86 2.03-3.03 0.77-6.94 1.16-10.36 0.47-0.11 1.42-0.34 1.89-0.46 0.55 2.02 1.26 3.99 2 5.94 1.18 2.67 0.58 5.62 1.05 8.42-1.08 0.49-2.15 0.96-3.22 1.45 0.8 0.69 1.6 1.38 2.41 2.08-0.68 0.24-2.05 0.73-2.73 0.97 1.88 0.88 3.94 1.2 6 1.29 0.04 0.34 0.11 1.01 0.15 1.35-1.67-0.05-3.5-0.73-5.08-0.04-0.64 1.14-0.99 2.41-1.39 3.64l2.31 1.11c-0.86 1.02-1.75 2-2.61 3.01 2.27 0.33 4.53 0.66 6.81 0.95-2.88 1.33-5.39 3.27-7.68 5.43 0.59 0.51 1.17 1.01 1.76 1.52-4.34-0.46-8.63 0.79-12.41 2.89-1.1 1.32-1.88 2.87-2.76 4.34-4.96-0.61-9.5-2.74-14.27-4.03-0.2-0.65-0.41-1.31-0.61-1.96-1.13 0.27-2.26 0.54-3.38 0.81l0.96 2.4c-1.43 0.08-2.86 0.13-4.29 0.19 0.29 0.86 0.74 1.66 1.03 2.52-0.79 0.28-1.58 0.56-2.36 0.84-1.8-1.8-3.73-3.47-6.03-4.59 1.5-5.14 4.46-9.73 5.56-15.01 2.68-9.02 5.07-18.11 7.58-27.17 1.46 1.01 0.73 2.52 0.37 3.85 2.32 0.08 4.66-0.03 6.94-0.53-0.16-0.52-0.49-1.55-0.66-2.07 1.23-0.72 2.48-1.41 3.72-2.11 0.25-2.52 0.38-5.04 0.38-7.56l0.01-0.68 0.99 0.08c-0.2 4.99 0.07 9.99-0.22 14.98-0.07 2.13-0.29 4.36 0.7 6.35 0.14 0.38 0.42 1.13 0.56 1.51 0.58-0.46 1.73-1.37 2.31-1.83 0.72-6.46-0.02-12.97 0.24-19.45 1.39-0.19 2.78-0.37 4.17-0.55-0.03-0.45-0.11-1.37-0.15-1.82z" fill="#b3dea8"/>
 <path d="m199.46 156.7c2.38 1.32 2.14 4.33 1.89 6.64-0.76 5.14-0.36 10.35 0.07 15.5-1.1 0.45-2.19 0.92-3.27 1.4l-0.19-0.57c1.01-1.38 1.51-3.02 1.45-4.72 0.14-6.08-0.02-12.17 0.05-18.25z" fill="#a7d97d"/>
 <path d="m262.6 165.25c-3.03-3.58 1.57-9.97 5.9-7.47-3.4 1.2-5.34 3.98-5.9 7.47z" fill="#b1c47b"/>
 <path d="m331.56 157.14c0.36 0.16 1.1 0.47 1.47 0.63-1.07 4.23-3.55 7.87-5.21 11.85-0.86 3.65 0.45 7.72-1.74 11.06-0.54-0.59-1.06-1.13-1.57-1.72 0.96-3.17 0.31-6.46 0.61-9.68 2.02-4.11 4.62-7.92 6.44-12.14z" fill="#b9cb99"/>
 <path d="m167.18 158.06c1.22-0.18 2.45-0.2 3.67-0.07l-0.01 0.68c-1.05 1-3.16 0.91-3.66-0.61z" fill="#9bc094"/>
 <path d="m173.74 157.97c1.76 0.02 3.5-0.17 5.2-0.59l0.51-0.12c0.04 0.45 0.12 1.37 0.15 1.82-1.39 0.18-2.78 0.36-4.17 0.55-0.26 6.48 0.48 12.99-0.24 19.45-0.58 0.46-1.73 1.37-2.31 1.83-0.14-0.38-0.42-1.13-0.56-1.51 1.45-2.13 1.03-4.76 1.21-7.18 0.3-4.75 0.15-9.5 0.21-14.25z" fill="#a0c296"/>
 <path d="m299.97 157.99c2.18-0.24 4.39-0.17 6.57 0.14l-0.33 0.81c-1.59 0.28-3.16 0.62-4.68 1.12 0.17 2.12 0.32 4.24 0.38 6.36l-1.4 0.57c-0.54-2.97-0.46-6-0.54-9z" fill="#aec376"/>
 <path d="m301.53 160.06c1.52-0.5 3.09-0.84 4.68-1.12l0.88-0.14c2.67 3.57-0.96 8.6-5.18 7.62-0.06-2.12-0.21-4.24-0.38-6.36z" fill="#c8e37f"/>
 <path d="m309.85 159.4l1.14 1c0.78 2.89-0.37 5.64-1.77 8.12-0.36-0.43-1.06-1.28-1.41-1.71 1.73-2.08 2.63-4.69 2.04-7.41z" fill="#aac072"/>
 <path d="m227.03 162.58c0.58 1.07 1.16 2.14 1.74 3.22l1.15-0.73c-3.14 3.8-0.82 9.3-1.76 13.8-0.36-0.09-1.09-0.29-1.46-0.39 0.59-5.28 0.16-10.6 0.33-15.9z" fill="#9fb974"/>
 <path d="m217.63 165.99c2.44-0.53 4.9-1 7.39-1.24 0.05 4.39-0.49 8.78-0.29 13.18 0.5 0.14 1.48 0.42 1.97 0.55 0.37 0.1 1.1 0.3 1.46 0.39 0.94-4.5-1.38-10 1.76-13.8l1.39-0.89c-0.02 0.8-0.07 2.41-0.1 3.21-3.08 1.79-1.41 5.76-1.89 8.62 0.43 3.01-2.1 4.95-3.47 7.29-0.06 2.14 1.29 4.06 2.04 6.02-1.24 0.04-2.47 0.08-3.7 0.12 1.54 1.31 2.62 2.96 2.61 5.05 0.23-0.1 0.67-0.28 0.9-0.38 0.61 0.44 1.82 1.32 2.43 1.76-2.97 0.87-6.04 1.33-9.14 1.33-1.74-0.15-3.47-0.37-5.21-0.58-0.39-1.38-0.71-2.78-0.94-4.19 0.73-0.45 1.47-0.9 2.2-1.35-0.03-0.97-0.07-1.94-0.09-2.91 2.25-2.09 2.86-5.03 2.6-7.98-0.09-0.86-0.29-1.71-0.74-2.46-0.36-0.29-1.08-0.86-1.44-1.15-0.58-0.02-1.73-0.05-2.3-0.07-0.15-2.41-0.36-4.82-0.7-7.21 1.48-0.11 2.97-0.24 4.46-0.38-0.15-0.38-0.46-1.13-0.61-1.51l-0.59-1.42z" fill="#b4dc7b"/>
 <path d="m187.56 167.27c3.31-0.2 6.63-0.33 9.95-0.29v1.07c-2.08 0.18-4.16 0.33-6.22 0.69-0.47 0.12-1.42 0.35-1.89 0.46-0.39 3.42 0.87 7.33-1.16 10.36-0.22-0.21-0.67-0.64-0.89-0.86 0.65-3.78 0.36-7.62 0.21-11.43z" fill="#9ebd8c"/>
 <path d="m218.22 167.41c0.15 0.38 0.46 1.13 0.61 1.51-1.49 0.14-2.98 0.27-4.46 0.38-1.31 0.08-2.62 0.15-3.93 0.22-0.24 2.37-0.37 4.76-0.42 7.15l-1.53 0.05c-0.05-2.9-0.03-5.79 0.1-8.68 3.22-0.11 6.44-0.24 9.63-0.63z" fill="#9fbe7c"/>
 <path d="m252.47 167.25c0.12 0.4 0.37 1.2 0.49 1.6-2.81 0.32-5.63 0.57-8.45 0.76-0.26 2.34-0.47 4.67-0.65 7.02l-1.36 0.07c-0.06-2.89-0.04-5.78 0.1-8.67 3.29-0.16 6.63-0.05 9.87-0.78z" fill="#a3be63"/>
 <path d="m191.29 168.74c2.06-0.36 4.14-0.51 6.22-0.69 0.37 3.86-1.07 7.94 0.45 11.62l0.19 0.57c1.08-0.48 2.17-0.95 3.27-1.4 0.3 0.17 0.9 0.5 1.2 0.67-1.1 0.69-2.2 1.38-3.29 2.07 2.93 0.65 5.88 1.28 8.82 1.95-2.04 0.32-4.09 0.63-6.13 0.92 2.99 0.56 5.99 1.34 8.52 3.12 1.87 1.34 4.3 0.5 6.41 0.6 0.02 0.97 0.06 1.94 0.09 2.91-0.73 0.45-1.47 0.9-2.2 1.35 0.23 1.41 0.55 2.81 0.94 4.19 1.74 0.21 3.47 0.43 5.21 0.58 0.51 0.7 1.03 1.39 1.55 2.09-2.33-0.16-4.67 0.26-6.65 1.5 1.32 2.85 4.36 5.18 4.11 8.64 3.02 2.72 5.5 6.53 5.96 10.63-3.85 0.74-7.46-1.55-11.3-1.01-5.48 0.54-10.98 0.14-16.46-0.09-0.46-3.57 0.24-8.23-3.67-10.06-1.15-1.02-2.3-2.04-3.46-3.04-0.59-0.51-1.17-1.01-1.76-1.52 2.29-2.16 4.8-4.1 7.68-5.43-2.28-0.29-4.54-0.62-6.81-0.95 0.86-1.01 1.75-1.99 2.61-3.01l-2.31-1.11c0.4-1.23 0.75-2.5 1.39-3.64 1.58-0.69 3.41-0.01 5.08 0.04-0.04-0.34-0.11-1.01-0.15-1.35-2.06-0.09-4.12-0.41-6-1.29 0.68-0.24 2.05-0.73 2.73-0.97-0.81-0.7-1.61-1.39-2.41-2.08 1.07-0.49 2.14-0.96 3.22-1.45-0.47-2.8 0.13-5.75-1.05-8.42-0.74-1.95-1.45-3.92-2-5.94z" fill="#b0dc93"/>
 <path d="m300.18 168.25c2.42 0.01 5.43-1.18 7.29 0.94-1.73 0.4-3.45 0.82-5.17 1.26-0.14 2.26-0.23 4.53-0.28 6.81-0.46-0.02-1.39-0.06-1.85-0.08-0.12-2.98-0.03-5.96 0.01-8.93z" fill="#b2c77c"/>
 <path d="m210.44 169.52c1.31-0.07 2.62-0.14 3.93-0.22 0.34 2.39 0.55 4.8 0.7 7.21-1.69 0.03-3.37 0.08-5.05 0.16 0.05-2.39 0.18-4.78 0.42-7.15z" fill="#bfe096"/>
 <path d="m307.47 169.19l0.39-0.09c0.69 2.1 1.55 4.68-0.01 6.63-1.37 1.75-3.91 1.13-5.83 1.53 0.05-2.28 0.14-4.55 0.28-6.81 1.72-0.44 3.44-0.86 5.17-1.26z" fill="#c2e078"/>
 <path d="m86.16 174.74c3.56-1 7.15-2.01 10.32-3.99-0.35 0.75-0.7 1.51-1.04 2.27 3.12 0.16 6.27-0.01 9.38 0.43 2.47 1.37 4.68 3.62 7.76 3.3 0.66 0.71 1.32 1.41 1.99 2.12-0.34 0.97-0.67 1.94-1.01 2.92 2.92 1.02 5.74 2.4 7.84 4.74-0.44 0.97-0.87 1.95-1.43 2.86-0.21 0.15-0.65 0.46-0.86 0.61-2.22-2.37-6.13-2.31-7.8 0.65-0.8 0.89-1.59 1.79-2.39 2.68-0.84-1.21-1.64-2.45-2.47-3.66-4.13 0.76-8.35 1.09-12.5 0.26-2.25-0.57-4.32 0.47-6.15 1.64 0.55 0.69 1.09 1.37 1.64 2.06-2.04 0.41-4.09 0.84-6.13 1.27 1.11 1.39 2.48 2.79 2.24 4.72-0.42 0.24-1.26 0.71-1.68 0.94-1.69-0.86-3.32-1.86-5.12-2.48-2.83-0.44-2.79 4.1-5.66 3.87-4.5 0.23-9.12-0.86-13.44 1.05 0.2 0.68 0.41 1.36 0.62 2.04-1.58 0.24-3.16 0.48-4.73 0.73 0.42 1.65 0.87 3.31 1.32 4.96-0.95 0.8-1.98 1.47-2.93 2.26 0.83 0.59 1.66 1.19 2.49 1.79-0.36 1.1-0.73 2.19-1.09 3.29 0.28 0.69 0.84 2.07 1.13 2.76-2.74 2.03-6.3 1.35-9.47 1.18-2.99-0.19-5.83-1.24-8.37-2.82-0.8-5.47-1.85-10.94-3.74-16.15-0.98-1.76 0.19-3.58 0.73-5.26l0.46-0.35c1.94-1.18 3.27-3.03 4.15-5.09-0.56-1.61-1.1-3.22-1.64-4.83 3.31-3.43 8.14-4.07 12.61-4.8 2.76 1.25 5.8 0.45 8.62 0.92 1.62 1.85 3.85 1.74 5.9 0.64-0.38-0.67-0.77-1.34-1.15-2 3.72-0.67 7.5-0.67 11.25-1.02 4.11-0.85 7.61-3.42 10.35-6.51z" fill="#cfe8a2"/>
 <path d="m310.72 170.73c3.13 2.83 1.12 8.21-2.78 9.01-3.1 0.5-7.15 1.53-9.51-1.17 3.14-0.26 6.47 0.43 9.47-0.75 2.66-1.19 3.06-4.52 2.82-7.09z" fill="#a9c26a"/>
 <path d="m315.78 183.81c1.67-4.3 3.9-8.36 6.29-12.29h1.13c0.02 2.51-1 5.59 1.31 7.44 0.51 0.59 1.03 1.13 1.57 1.72-1.52 0.63-3.03 1.29-4.53 1.94 0.85 0.56 1.71 1.12 2.57 1.69-1.25 0.76-2.49 1.53-3.74 2.29 1.21 0.13 2.42 0.27 3.63 0.42-0.64 0.7-1.28 1.41-1.92 2.11-3.04 0.29-4.26 3.16-5.76 5.37-1.24-1.58-2.28-3.3-3.07-5.15 1.09-0.34 2.18-0.68 3.28-1.02-0.29-1.5-0.71-2.99-0.76-4.52z" fill="#cee69c"/>
 <path d="m218.81 177.73c0.45 0.75 0.65 1.6 0.74 2.46-3.5 0.1-7.01 0.26-10.5-0.04-0.41-0.4-1.25-1.18-1.66-1.57 3.79-0.44 7.8 0.62 11.42-0.85z" fill="#a2c47b"/>
 <path d="m355.34 182.84c1.13 4.88 0.88 9.97 2.2 14.81 0.3 1.73 1.27 3.53 0.48 5.27-1.28 3.71-2.09 7.55-3.22 11.31-3.46-6.91-5.54-14.56-9.83-21.02-1.69-1.53-1.94-3.69-1.8-5.84 3.75-0.38 7.52-0.57 11.29-0.74 0.31-1.26 0.6-2.53 0.88-3.79z" fill="#eaf4d8"/>
 <path d="m30.75 187.67c1.08-0.3 2.15-0.59 3.22-0.87-0.38 5.06-1.88 9.94-2.57 14.93 3.13 8.37 4.21 17.27 5.01 26.13 0.27 2.51-0.94 4.66-2.55 6.47 0.44 1.23 0.91 2.45 1.37 3.68-1.01 1.81-2.09 3.58-3.27 5.28-0.79-13.98-1.01-28.39-6.47-41.52 0.78-2.86 1.69-5.7 2.64-8.51 0.78-1.91 1.7-3.75 2.62-5.59z" fill="#d9ecb8"/>
 <path d="m111.31 190.65c1.67-2.96 5.58-3.02 7.8-0.65-1.27 1.08-2.73 1.9-4.35 2.33-1.15-0.57-2.3-1.13-3.45-1.68z" fill="#d1e9bb"/>
 <path d="m241.24 192.16c2.85-1.43 5.7-2.87 8.71-3.94-0.31 1.95 0.12 4.59-2 5.65-5.07 3.26-9.73 7.11-13.95 11.41 4.82 1.12 8.61 4.58 13.4 5.77 0.09 2.5-0.13 5.2 1.08 7.5 1.62 2.43 4.97 3.5 5.81 6.47-1.81 4.86-5.22 8.88-7.8 13.33-0.63-0.99-1.3-1.97-2.17-2.75-2.01-0.39-4.11-0.24-6.06-0.97 0.87-1.73 3.37-4.06 1.05-5.76-1.86-1.59-2.83-3.82-3.42-6.13-1.79-0.2-3.6-0.27-5.4-0.27 1.73-1.15 3.51-2.21 5.31-3.25-3.05 0.01-6.26 0.29-9.06-1.13 1.34-0.55 2.71-1.04 4.07-1.54-0.87-0.83-1.73-1.65-2.59-2.46 0.79-0.7 1.58-1.39 2.37-2.07-0.18-3.24-1.39-7.02-5.06-7.59 1.15-0.59 2.3-1.17 3.45-1.76-0.67-0.28-2.01-0.82-2.68-1.1 1.27-0.88 2.55-1.76 3.8-2.67-2.48-0.15-5.34 2.05-7.56 0.39-0.52-0.7-1.04-1.39-1.55-2.09 3.1 0 6.17-0.46 9.14-1.33-0.61-0.44-1.82-1.32-2.43-1.76 1.99-0.83 3.96-2.19 6.23-1.79 2.42 0 5.05 1.12 7.31-0.16z" fill="#c4e388"/>
 <path d="m93.95 189.93c4.15 0.83 8.37 0.5 12.5-0.26 0.83 1.21 1.63 2.45 2.47 3.66 0.8-0.89 1.59-1.79 2.39-2.68 1.15 0.55 2.3 1.11 3.45 1.68-0.15 0.41-0.44 1.24-0.58 1.66 0.94 1.01 1.99 1.94 2.78 3.09 0.17 1.58-0.09 3.17-0.21 4.75l2.82 1.44-2.94 1.59c0.08 0.6 0.16 1.19 0.24 1.79-0.59 0.81-1.17 1.62-1.75 2.44 1.63 0.68 3.27 1.37 4.95 1.93-0.14 0.57-0.44 1.73-0.59 2.3 0.99 1.36 2 2.71 3.03 4.04-1.35 0.52-2.72 1.03-4.07 1.56 1.39 0.89 2.78 1.79 4.17 2.68-1.14 0.1-2.28 0.21-3.41 0.31 2.95 2.33 3.77 6.3 2.49 9.76-2.29 0.66-4.61 1.16-6.9 1.76 1.55 0.8 3.16 1.48 4.82 2.06-1.62 0.41-3.64 0.47-4.21 2.38 1.08 0.59 2.17 1.18 3.26 1.77-1.97 0.06-3.95 0.28-5.83 0.87 0.48 0.7 0.97 1.41 1.47 2.12-0.41 0.15-1.23 0.45-1.63 0.61 0.41 1.18 0.83 2.37 1.24 3.57-2.31-0.27-4.47-1.15-6.38-2.46-2.88-1.96-6.48-0.87-9.71-0.82-2.14 0.29-3.5-1.82-5.37-2.51-1.8 0.78-3.57 1.6-5.36 2.37-1.94-1.68-4.41-2.97-5.3-5.54-1.76 0.67-3.44 1.52-5.04 2.52-3.2-2-6.44-4.09-8.99-6.89 0.02-2.89-0.43-5.75-0.87-8.61 0.58-2.26 1.51-4.41 2.18-6.64-4.38-0.78-8.73 0.67-12.61 2.6-0.29-0.69-0.85-2.07-1.13-2.76 0.36-1.1 0.73-2.19 1.09-3.29-0.83-0.6-1.66-1.2-2.49-1.79 0.95-0.79 1.98-1.46 2.93-2.26-0.45-1.65-0.9-3.31-1.32-4.96 1.57-0.25 3.15-0.49 4.73-0.73-0.21-0.68-0.42-1.36-0.62-2.04 4.32-1.91 8.94-0.82 13.44-1.05 2.87 0.23 2.83-4.31 5.66-3.87 1.8 0.62 3.43 1.62 5.12 2.48 0.42-0.23 1.26-0.7 1.68-0.94 0.24-1.93-1.13-3.33-2.24-4.72 2.04-0.43 4.09-0.86 6.13-1.27-0.55-0.69-1.09-1.37-1.64-2.06 1.83-1.17 3.9-2.21 6.15-1.64z" fill="#cae58e"/>
 <path d="m316.33 194.5c1.5-2.21 2.72-5.08 5.76-5.37 2.02 0.81 3.76 2.12 5.37 3.57 3.78 6.38 0.81 13.65-0.1 20.34-0.9 6.33 5.44 9.73 8.52 14.33 2.4 2.86 4.83 5.69 6.88 8.83 2.3 4.73 3.33 10.55 0.94 15.44-1.74 3.63-4.26 7.21-8.03 8.92-2.48 1.02-5.27 0.57-7.8-0.01-1.33-0.84-2.73-1.57-4.16-2.2-2.27-1.26-6.27-1.86-5.98-5.28-0.46-3.75 3.7-6.66 7.05-5.08 2.63 1.57 5.07 4.12 8.27 4.27 3.25-1.27 3.64-5.85 3.41-8.91-1.17-2.9-4.19-4.6-6.25-6.88-1.58-1.47-3.13-2.98-4.7-4.46-0.38-0.34-1.14-1.01-1.51-1.35-5.81 2.53-8.1 9.36-14.13 11.57-0.44-0.56-1.31-1.7-1.74-2.26 1.73-5.5 6.26-9.51 8.17-14.93-0.94-3.55-5.63-4.41-6.41-8.04-0.93-4.99-0.3-10.25 1.46-15 1.7-2.47 3.36-4.97 4.98-7.5z" fill="#fff"/>
 <path d="m119.11 190c0.21-0.15 0.65-0.46 0.86-0.61 3.07 3.88 8.01 5.99 10.28 10.62 0.23 2.23-0.12 4.46-0.64 6.62-1.35 0.16-2.7 0.32-4.05 0.49 0.27 0.9 0.55 1.8 0.83 2.71-2.1 0.45-4.19 0.9-6.32 1.19-1.68-0.56-3.32-1.25-4.95-1.93 0.58-0.82 1.16-1.63 1.75-2.44-0.08-0.6-0.16-1.19-0.24-1.79l2.94-1.59-2.82-1.44c0.12-1.58 0.38-3.17 0.21-4.75-0.79-1.15-1.84-2.08-2.78-3.09 0.14-0.42 0.43-1.25 0.58-1.66 1.62-0.43 3.08-1.25 4.35-2.33z" fill="#c1e2a5"/>
 <path d="m250.48 200.47c2.61-3.53 4.43-7.75 7.54-10.86 4.65-1.48 7.56 2.99 9.2 6.58 1.85 7.57-3.89 15.08-0.77 22.43 4.3 5.16 8.86 10.13 13.1 15.36 0.97 1.91 1.8 3.89 2.75 5.82 2.46 7.43-0.93 15.84-7.28 20.13-3.23 2.14-7.37 1.52-10.67-0.1-2.41-1.38-4.99-2.42-7.39-3.79-2.23-1.71-0.83-4.66-0.37-6.87 1.42-0.64 2.76-1.64 4.37-1.76 3.39 0.92 5.88 3.68 9.18 4.78 2.1 0.56 3.2-1.63 3.67-3.28 0.8-2.48 1.53-5.98-0.87-7.81-3.27-3.13-6.52-6.28-9.82-9.37-0.28-0.26-0.84-0.76-1.12-1.02-5.85 2.56-8.17 9.46-14.33 11.57-0.82-1.17-1.33-2.49-1.18-3.93 2.58-4.45 5.99-8.47 7.8-13.33-0.84-2.97-4.19-4.04-5.81-6.47-1.21-2.3-0.99-5-1.08-7.5 0.35-3.67 0.75-7.56 3.08-10.58z" fill="#fff"/>
 <path d="m327.46 192.7c0.63 0.15 1.88 0.45 2.5 0.6 3.59 7.33-0.6 15.14-0.26 22.7-0.01 2.61 2.92 3.31 4.36 4.96 0.85 2.06 1.17 4.28 1.82 6.41-3.08-4.6-9.42-8-8.52-14.33 0.91-6.69 3.88-13.96 0.1-20.34z" fill="#c3d5a3"/>
 <path d="m344.97 193.21c4.29 6.46 6.37 14.11 9.83 21.02-0.35 5.49-1.12 11.09-1.75 16.49-1.61 1.95-1.86 4.49-2.67 6.79-0.81 1.65-2.08 3.03-2.91 4.68-0.49 2.94 0.01 6.05-1.15 8.88 0.46-5.15-0.04-10.46-2.26-15.18-1.09-2.49-3.54-4.58-3.27-7.5-0.19-3.1 1.41-5.91 1.41-9 0.97-2.12 2.94-3.62 4.43-5.39-1.41-0.32-2.81-0.62-4.21-0.94 0.67-0.87 1.34-1.75 2.01-2.62-1.09-0.53-2.18-1.04-3.26-1.56 0.83-0.53 1.67-1.05 2.51-1.57-1.07-0.36-2.13-0.72-3.19-1.08 0.37-1.3 0.81-2.65 0.4-4-0.78-3.45-0.33-8.59 4.08-9.02z" fill="#dfefc8"/>
 <path d="m359.84 193.03c1.65 0.05 3.31 0.1 4.98 0.15l0.64 0.02c0.51 2.86 1.36 5.65 1.9 8.5-1.31 4.32-2.99 8.55-3.79 13.02-2.62 11.58-1.3 23.58-3.36 35.24-0.63 3.74-0.72 7.63-2.08 11.22-0.33-2.44-1.08-4.8-2.17-7-0.64 0.63-1.26 1.26-1.89 1.9 2.88-16.74 0.99-34.19 6.57-50.47 1.97-4.15-0.25-8.4-0.8-12.58z" fill="#eef6e4"/>
 <path d="m269.09 195.41c4.13-3.17 10.61-1.02 11.92 4.02 3.87 1.86 8.24 0.6 12.27 0.05-1.41 3.32-5.42 2.57-8.36 3.13 2.76 0.15 5.52 0.4 8.26 0.8-3.44 1.03-7.11 1.12-10.45 2.51 2.37 0.37 4.76 0.55 7.11 1.09-0.56 0.39-1.68 1.17-2.23 1.56 1.71 2.82 3.45 5.71 4.24 8.95 0.25 3.23-1.54 6.2-1.32 9.44-0.31 2.26 0.92 5.47-1.57 6.84-1.65 1.32-3.32 2.6-4.93 3.95-1.48-1.28-2.96-2.55-4.48-3.77-4.24-5.23-8.8-10.2-13.1-15.36 0.98-4.48 1.25-9.09 2.63-13.48 0.47-1.26 0.96-2.5 1.49-3.73 1.07-0.34 2.15-0.69 3.23-1.03-1.29-0.28-2.57-0.56-3.84-0.84 0.78-0.75 1.6-1.46 2.4-2.2-1.1-0.64-2.19-1.28-3.27-1.93z" fill="#cbe468"/>
 <path d="m267.22 196.19c2.84 2.1 1.99 5.91 1.86 8.95-1.38 4.39-1.65 9-2.63 13.48-3.12-7.35 2.62-14.86 0.77-22.43z" fill="#b3c76d"/>
 <path d="m215.89 200.79c1.98-1.24 4.32-1.66 6.65-1.5 2.22 1.66 5.08-0.54 7.56-0.39-1.25 0.91-2.53 1.79-3.8 2.67 0.67 0.28 2.01 0.82 2.68 1.1-1.15 0.59-2.3 1.17-3.45 1.76 3.67 0.57 4.88 4.35 5.06 7.59-0.79 0.68-1.58 1.37-2.37 2.07 0.86 0.81 1.72 1.63 2.59 2.46-1.36 0.5-2.73 0.99-4.07 1.54 2.8 1.42 6.01 1.14 9.06 1.13-1.8 1.04-3.58 2.1-5.31 3.25-3.25 2.32-6.54 4.59-9.99 6.6-0.1 0.83-0.21 1.66-0.31 2.49-2.58-0.19-5.25-0.86-7.8-0.15-1.2 1.32-1.61 3.13-2.2 4.77 0.73 0.15 1.45 0.31 2.18 0.47 0.07 1.35 0.13 2.71 0.2 4.07-7.63 2.73-17.57 2.32-23.31-4.02 4.67-4.81 7.78-11.14 8.94-17.74 5.48 0.23 10.98 0.63 16.46 0.09 3.84-0.54 7.45 1.75 11.3 1.01-0.46-4.1-2.94-7.91-5.96-10.63 0.25-3.46-2.79-5.79-4.11-8.64z" fill="#abdb81"/>
 <path d="m299.93 206.62c4.35-0.1 7.68-2.85 11.42-4.62-1.76 4.75-2.39 10.01-1.46 15 0.78 3.63 5.47 4.49 6.41 8.04-1.91 5.42-6.44 9.43-8.17 14.93 0.43 0.56 1.3 1.7 1.74 2.26l0.79 0.97c0.03 1.5 0.07 3.01 0.02 4.52-0.87-0.87-1.72-1.73-2.58-2.59-0.36 2.1-0.7 4.2-1.03 6.3-1.65-1.88-3.13-3.92-4.92-5.67-1.94-1.34-5.44 0.36-6.72-2.14-0.29-0.46-0.86-1.39-1.14-1.85-3.8-0.12-7.39-1.53-10.26-4.02 1.61-1.35 3.28-2.63 4.93-3.95 2.49-1.37 1.26-4.58 1.57-6.84-0.22-3.24 1.57-6.21 1.32-9.44 1.97 1.01 3.87 2.68 6.21 2.61 1.94-0.21 2.44-2.33 3.37-3.71 1.16-0.28 2.33-0.56 3.51-0.83-1.8-0.54-3.56-1.22-5.15-2.23 2.03-0.4 4.08-0.72 6.14-0.99-1.6-0.64-3.19-1.29-4.78-1.94 1.64-0.68 3.28-1.37 4.91-2.07-2.01-0.69-4.05-1.28-6.13-1.74z" fill="#cee68e"/>
 <path d="m178.66 208.75c3.78-2.1 8.07-3.35 12.41-2.89 1.16 1 2.31 2.02 3.46 3.04 2.36 4.89 2.24 10.76 0.07 15.69-1.51 3.9-4.03 7.25-6.18 10.8l0.84 1.31c5.74 6.34 15.68 6.75 23.31 4.02 3.88-1.35 7.2-3.81 10.66-5.95 1.46-0.18 2.72 0.75 4 1.31-0.07 4.52-4.71 6.35-8.31 7.62-9.2 2.63-19 4.9-28.53 2.65-4.58-1.55-9.05-3.66-12.58-7.04-0.72-0.7-1.42-1.41-2.08-2.15-5.87-6.84-4.76-17.05 0.17-24.07 0.88-1.47 1.66-3.02 2.76-4.34z" fill="#fff"/>
 <path d="m125.56 207.12c1.35-0.17 2.7-0.33 4.05-0.49-0.27 0.87-0.55 1.75-0.83 2.63 0.9 0.94 1.8 1.87 2.71 2.82-2.04 5.58-3.49 11.35-5.27 17.01-1.5 0.89-2.99 1.79-4.53 2.58 1.28-3.46 0.46-7.43-2.49-9.76 1.13-0.1 2.27-0.21 3.41-0.31-1.39-0.89-2.78-1.79-4.17-2.68 1.35-0.53 2.72-1.04 4.07-1.56-1.03-1.33-2.04-2.68-3.03-4.04 0.15-0.57 0.45-1.73 0.59-2.3 2.13-0.29 4.22-0.74 6.32-1.19-0.28-0.91-0.56-1.81-0.83-2.71z" fill="#b6dfa2"/>
 <path d="m157.64 207.91c1.12-0.27 2.25-0.54 3.38-0.81 0.2 0.65 0.41 1.31 0.61 1.96 4.77 1.29 9.31 3.42 14.27 4.03-4.93 7.02-6.04 17.23-0.17 24.07-2.5 0.24-5.01 0.21-7.51 0.19-3.13-0.14-5.51 2.27-8.04 3.71 2.64 0.25 5.3 0.19 7.95 0.07-3.01 1.13-6.61 1.56-8.77 4.18-2.67 3.16-7.1 3.71-10.27 6.22-0.03-0.59-0.09-1.77-0.12-2.36 1.1-1.6 1.96-3.43 3.5-4.67 2.36-1.05 4.94-1.43 7.45-1.95-1.86-0.24-3.71-0.55-5.55-0.91-0.44-0.85-0.89-1.69-1.33-2.53 1.55 0.18 3.1 0.4 4.65 0.6-0.74-0.9-1.47-1.8-2.2-2.69 1.9-0.48 3.79-1.01 5.65-1.62-2.75-0.63-5.76-0.42-8.27-1.88 1.64-0.75 3.31-1.45 4.98-2.12-1.25-0.28-2.51-0.56-3.76-0.83 1.28-0.91 2.56-1.81 3.85-2.7-4.49-0.68-8.04-4.41-12.77-3.85 0.38 1.38 0.81 2.74 1.25 4.1-2.15-0.7-4.5-2.04-6.68-0.68 2.37-6.07 4.64-12.18 7.21-18.17 2.3 1.12 4.23 2.79 6.03 4.59 0.78-0.28 1.57-0.56 2.36-0.84-0.29-0.86-0.74-1.66-1.03-2.52 1.43-0.06 2.86-0.11 4.29-0.19l-0.96-2.4z" fill="#bae0b6"/>
 <path d="m194.53 208.9c3.91 1.83 3.21 6.49 3.67 10.06-1.16 6.6-4.27 12.93-8.94 17.74l-0.84-1.31c2.15-3.55 4.67-6.9 6.18-10.8 2.17-4.93 2.29-10.8-0.07-15.69z" fill="#98be82"/>
 <path d="m183.28 227.97c-0.97-5.22-2.23-11.78 1.71-16.1 0.58 0.02 1.75 0.05 2.33 0.07l-0.42 0.62c-3.93 3.93-2.44 9.68-2.44 14.64-0.3 0.19-0.88 0.58-1.18 0.77z" fill="#98bc8b"/>
 <path d="m184.46 227.2c0-4.96-1.49-10.71 2.44-14.64 1.75 4.62 0.3 10.56-2.44 14.64z" fill="#afdca0"/>
 <path d="m56.46 220.83c3.88-1.93 8.23-3.38 12.61-2.6-0.67 2.23-1.6 4.38-2.18 6.64 0.44 2.86 0.89 5.72 0.87 8.61 2.55 2.8 5.79 4.89 8.99 6.89 1.6-1 3.28-1.85 5.04-2.52 0.89 2.57 3.36 3.86 5.3 5.54 1.79-0.77 3.56-1.59 5.36-2.37 0.22 2.32-1.91 3.84-3.71 4.79-2.49 0.51-5.04-0.21-7.53-0.43-0.4 0.51-0.78 1.03-1.15 1.57 3.58 1.18 5.96 4.16 8.03 7.15-2 0.32-3.75-0.68-5.47-1.51-3.78 1.58-8.14 2.22-11.14 5.25-3.16-0.99-6.61-0.77-9.63-2.21-2.76-1.07-5.8-0.63-8.69-0.75 1.27-0.73 2.54-1.47 3.79-2.22-1.61-0.56-3.23-1.12-4.93-1.35-0.7-2.16 0.17-3.98 1.79-5.39-1.3-0.19-2.6-0.37-3.89-0.56-0.24-0.74-0.49-1.48-0.73-2.22l-2.4-0.78c0.25-0.67 0.49-1.34 0.74-2.01-3.57-1.22-5.62-4.49-7.46-7.56-1.04-4.39-0.74-9.1-1.45-13.6 2.54 1.58 5.38 2.63 8.37 2.82 3.17 0.17 6.73 0.85 9.47-1.18z" fill="#d8ebb1"/>
 <path d="m230.49 222.47c1.8 0 3.61 0.07 5.4 0.27 0.59 2.31 1.56 4.54 3.42 6.13 2.32 1.7-0.18 4.03-1.05 5.76 1.95 0.73 4.05 0.58 6.06 0.97 0.87 0.78 1.54 1.76 2.17 2.75-0.15 1.44 0.36 2.76 1.18 3.93l0.16 1.06c-2.45-0.23-4.7-1.24-6.86-2.34-2.7-1.91-4.24 2.01-6.25 3.2-1.69 1.34-1.93 3.69-3.17 5.37-1.05 1.15-2.54 1.76-3.91 2.44-4.16 0.17-8.34 0.43-12.5 0.08l2.79-2.07c-0.89-0.46-1.65-1.1-2.53-1.55 1.44-0.58 2.78-1.37 3.88-2.47 2.52-1.38 5.3-2.37 7.54-4.22 1.64-1.35 2.28-4.27 0.41-5.7-1.28-0.56-2.54-1.49-4-1.31-3.46 2.14-6.78 4.6-10.66 5.95-0.07-1.36-0.13-2.72-0.2-4.07-0.73-0.16-1.45-0.32-2.18-0.47 0.59-1.64 1-3.45 2.2-4.77 2.55-0.71 5.22-0.04 7.8 0.15 0.1-0.83 0.21-1.66 0.31-2.49 3.45-2.01 6.74-4.28 9.99-6.6z" fill="#b1dc79"/>
 <path d="m145.17 224.02c4.73-0.56 8.28 3.17 12.77 3.85-1.29 0.89-2.57 1.79-3.85 2.7 1.25 0.27 2.51 0.55 3.76 0.83-1.67 0.67-3.34 1.37-4.98 2.12 2.51 1.46 5.52 1.25 8.27 1.88-1.86 0.61-3.75 1.14-5.65 1.62 0.73 0.89 1.46 1.79 2.2 2.69-1.55-0.2-3.1-0.42-4.65-0.6 0.44 0.84 0.89 1.68 1.33 2.53 1.84 0.36 3.69 0.67 5.55 0.91-2.51 0.52-5.09 0.9-7.45 1.95-1.54 1.24-2.4 3.07-3.5 4.67-0.19-1.17-0.41-2.32-0.66-3.47-0.12-0.49-0.34-1.49-0.45-1.99-0.54 1.42-1.03 2.86-1.54 4.3 0.04-1.41-0.01-2.82-0.16-4.22-4.27-0.07-8.44 1.05-12.66 1.58 1.44-6.18 3.95-12.03 6.24-17.93 2.18-1.36 4.53-0.02 6.68 0.68-0.44-1.36-0.87-2.72-1.25-4.1z" fill="#c6e5bf"/>
 <path d="m36.41 227.86c0.71 9.36 0.65 18.82 2.65 28.04-0.74-0.6-1.48-1.19-2.22-1.78-0.59 0.03-1.77 0.09-2.35 0.12-0.21 0.7-0.61 2.09-0.81 2.78-0.75-4.55-1.21-9.14-1.72-13.73 1.18-1.7 2.26-3.47 3.27-5.28-0.46-1.23-0.93-2.45-1.37-3.68 1.61-1.81 2.82-3.96 2.55-6.47z" fill="#e6f3d3"/>
 <path d="m121.69 231.67c1.54-0.79 3.03-1.69 4.53-2.58-1.9 6.13-3.43 12.36-4.57 18.67-10.71 2.51-21.58 4.58-31.98 8.24-0.53-0.63-1.06-1.27-1.58-1.9-2.07-2.99-4.45-5.97-8.03-7.15 0.37-0.54 0.75-1.06 1.15-1.57 2.49 0.22 5.04 0.94 7.53 0.43 1.8-0.95 3.93-2.47 3.71-4.79 1.87 0.69 3.23 2.8 5.37 2.51 3.23-0.05 6.83-1.14 9.71 0.82 1.91 1.31 4.07 2.19 6.38 2.46-0.41-1.2-0.83-2.39-1.24-3.57 0.4-0.16 1.22-0.46 1.63-0.61-0.5-0.71-0.99-1.42-1.47-2.12 1.88-0.59 3.86-0.81 5.83-0.87-1.09-0.59-2.18-1.18-3.26-1.77 0.57-1.91 2.59-1.97 4.21-2.38-1.66-0.58-3.27-1.26-4.82-2.06 2.29-0.6 4.61-1.1 6.9-1.76z" fill="#cae5a3"/>
 <path d="m247.67 242.28c6.16-2.11 8.48-9.01 14.33-11.57 0.28 0.26 0.84 0.76 1.12 1.02-5.96 2.82-7.96 11.82-15.29 11.61l-0.16-1.06z" fill="#a4bd75"/>
 <path d="m309.87 242.23c6.03-2.21 8.32-9.04 14.13-11.57 0.37 0.34 1.13 1.01 1.51 1.35-5.48 3.09-8.4 9.8-14.85 11.19l-0.79-0.97z" fill="#afc387"/>
 <path d="m350.38 237.51c0.81-2.3 1.06-4.84 2.67-6.79-0.24 8.4-0.63 16.91-2.24 25.2-1.5 7.17-5.25 14.18-11.29 18.5 0.12-1.5 0.25-2.99 0.44-4.47-0.55-0.59-1.1-1.18-1.65-1.77 1.21-0.37 2.43-0.74 3.65-1.11-0.94-0.48-1.87-0.95-2.79-1.42 0.61-0.41 1.84-1.22 2.45-1.63-0.8-0.5-1.6-1-2.39-1.49 1.05-0.45 2.11-0.87 3.17-1.31-0.14-0.6-0.43-1.82-0.58-2.42 1.6-2.52 3.18-5.06 4.5-7.73 1.16-2.83 0.66-5.94 1.15-8.88 0.83-1.65 2.1-3.03 2.91-4.68z" fill="#ddefd5"/>
 <path d="m247.83 243.34c7.33 0.21 9.33-8.79 15.29-11.61 3.3 3.09 6.55 6.24 9.82 9.37 2.4 1.83 1.67 5.33 0.87 7.81-0.47 1.65-1.57 3.84-3.67 3.28-3.3-1.1-5.79-3.86-9.18-4.78-1.61 0.12-2.95 1.12-4.37 1.76-2.11-0.39-3.99-1.4-5.93-2.22-3.62 0.41-7.24 1.41-10.91 1.08-1.87-1-3.38-2.53-5.03-3.83 2.01-1.19 3.55-5.11 6.25-3.2 2.16 1.1 4.41 2.11 6.86 2.34z" fill="#badf7e"/>
 <path d="m325.51 232.01c1.57 1.48 3.12 2.99 4.7 4.46-1.33 1.02-3.56 1.71-3.48 3.76-0.08 2.72-0.22 5.49-1.95 7.76-3.35-1.58-7.51 1.33-7.05 5.08-0.29 3.42 3.71 4.02 5.98 5.28-1.99 0.5-4 0.86-6.03 1.16-0.13 0.88-0.26 1.77-0.39 2.66-4.31 3.05-6.87 7.89-10.82 11.33-2.17 0.9-4.6 0.58-6.89 0.71 0.4 0.71 0.8 1.43 1.2 2.15-3.01 0.85-5.88 2.1-8.16 4.29-3.72 1.04-7.75 0.4-11.52 1.38 1.37 0.66 2.76 1.29 4.15 1.93-0.92 0.52-1.83 1.05-2.74 1.59 0.92 0.54 1.85 1.1 2.78 1.66-2.04 0.61-4.12 1.1-6.22 1.5 1.08 0.92 2.17 1.82 3.25 2.76-3.53 0.15-7.1 0.09-10.56 0.94-0.22 1.01-0.44 2.02-0.65 3.04-3.32 1.03-6.82 0.83-10.24 0.86 2.79 0.46 5.57 1.05 8.21 2.07-2.33 0.65-5.05 0.48-7 2.08-2.35 2.1-5.7 2.18-8.54 3.26 0.29 0.81 0.59 1.62 0.89 2.43-2.41 0.7-4.88 1.11-7.37 1.31 1.37 0.29 2.74 0.61 4.11 0.96-1.57 1.74-4 1.86-6.15 2.24 2.74 0.49 5.46 1.17 8.11 2.03-2.29 0.33-4.59 0.55-6.9 0.64 1.32 0.76 3.12 1.23 3.38 3-1.79-0.11-3.58-0.23-5.36-0.34 0.79 0.85 1.58 1.7 2.38 2.56-1.06 2.24-3.74 2.02-5.83 2.03-3.26-0.1-6.53 0.13-9.79 0.13-3.06 0.13-5.16-2.65-7.99-3.27-3.37-0.04-6.7 0.69-10.06 0.93-0.62-0.98-1.24-1.95-1.86-2.92 1.87-0.27 3.74-0.53 5.61-0.78-0.24-1.95-0.88-3.82-1.65-5.61 7.04-0.88 14.15-1.15 21.15-2.34-1.34-0.45-2.67-0.9-4.01-1.33 2.48-0.6 5.04-1.26 7-3-1.21-0.24-2.43-0.47-3.64-0.69 0.63-0.93 1.25-1.86 1.89-2.78-1.43-0.54-2.86-1.04-4.28-1.56 0.93-0.08 1.87-0.16 2.8-0.25 1.74-0.16 3.53-0.42 4.97-1.49-0.77-0.66-1.55-1.31-2.32-1.96 0.5-0.41 1.01-0.81 1.52-1.2-0.11-0.72-0.22-1.44-0.33-2.15 1.49-0.6 2.98-1.18 4.46-1.78 0.33-1.91 0.74-3.81 1.2-5.69 1.07-0.15 2.13-0.3 3.2-0.45-0.74-1.69-1.48-3.38-2.22-5.06 2.64-0.24 5.32-0.51 7.82-1.45-1.61-1.19-3.4-2.08-5.24-2.83 1.96-0.19 3.93-0.42 5.88-0.69-0.41-1.05-0.83-2.11-1.25-3.16 3.67 0.07 7.74-0.42 9.44-4.17-3.08-0.96-6.34-1.3-9.28-2.69 3.09 0 6.69 1.09 9.15-1.43 4.17 1.63 8.84 2.71 13.17 0.94 1.05 1.05 2.18 2.22 3.79 2.31 4.59 0.19 9.24-0.89 13.37-2.9 2.82-1.46 6.07-1.25 9.15-1.5-0.27-0.81-0.53-1.62-0.78-2.42 4.21-0.89 8.78-2.05 11.21-5.97-1.02-0.55-2.03-1.09-3.04-1.63 0.28-0.68 0.56-1.35 0.84-2.02 0.05-1.51 0.01-3.02-0.02-4.52 6.45-1.39 9.37-8.1 14.85-11.19z" fill="#c2e29f"/>
 <path d="m40.07 232.79c1.84 3.07 3.89 6.34 7.46 7.56-0.25 0.67-0.49 1.34-0.74 2.01l2.4 0.78c0.24 0.74 0.49 1.48 0.73 2.22 1.29 0.19 2.59 0.37 3.89 0.56-1.62 1.41-2.49 3.23-1.79 5.39-3.55 0.16-7.17 0.15-10.54 1.42-0.95-6.58-1.64-13.29-1.41-19.94z" fill="#e4f1ce"/>
 <path d="m279.55 233.98c1.52 1.22 3 2.49 4.48 3.77 2.87 2.49 6.46 3.9 10.26 4.02 0.28 0.46 0.85 1.39 1.14 1.85 1.28 2.5 4.78 0.8 6.72 2.14 1.79 1.75 3.27 3.79 4.92 5.67 0.33-2.1 0.67-4.2 1.03-6.3 0.86 0.86 1.71 1.72 2.58 2.59-0.28 0.67-0.56 1.34-0.84 2.02 1.01 0.54 2.02 1.08 3.04 1.63-2.43 3.92-7 5.08-11.21 5.97 0.25 0.8 0.51 1.61 0.78 2.42-3.08 0.25-6.33 0.04-9.15 1.5-4.13 2.01-8.78 3.09-13.37 2.9-1.61-0.09-2.74-1.26-3.79-2.31 4.06-3.55 8-8.06 8.35-13.7 0.14-2.9 0.58-6.49-2.19-8.35-0.95-1.93-1.78-3.91-2.75-5.82z" fill="#bbe088"/>
 <path d="m227.23 236.08c1.87 1.43 1.23 4.35-0.41 5.7-2.24 1.85-5.02 2.84-7.54 4.22-9.31 2.13-19.09 4.39-28.59 1.97-0.08-0.41-0.22-1.22-0.3-1.62 9.53 2.25 19.33-0.02 28.53-2.65 3.6-1.27 8.24-3.1 8.31-7.62z" fill="#97bd73"/>
 <path d="m342.76 236.2l1.3-0.31c2.22 4.72 2.72 10.03 2.26 15.18-1.32 2.67-2.9 5.21-4.5 7.73-3.57 3.15-10.36 6.57-13.95 1.75 2.53 0.58 5.32 1.03 7.8 0.01 3.77-1.71 6.29-5.29 8.03-8.92 2.39-4.89 1.36-10.71-0.94-15.44z" fill="#bacab0"/>
 <path d="m160.18 241.06c2.53-1.44 4.91-3.85 8.04-3.71 2.5 0.02 5.01 0.05 7.51-0.19 0.66 0.74 1.36 1.45 2.08 2.15-2.76 4.4-1.7 9.75 0.07 14.29-0.3 3.4 2.11 6.61 0.78 9.93-1.07 3.74 2.7 6.86 2.2 10.67-0.4 2.02 0.55 3.82 1.49 5.54-0.26 1.19-0.93 2.37-0.74 3.62 1.34 1.51 3.08 2.62 4.36 4.19 1.15 1.9 2.03 3.97 3.35 5.78-1.26 1.45-2.62 3.04-1.88 5.09 2.6 0.33 5.22 0.36 7.84 0.25 0.2-0.87 0.39-1.73 0.59-2.59h1.23c0.22 0.77 0.44 1.55 0.66 2.33 1.47 0.1 2.94 0.18 4.42 0.26-0.92 1.01-1.85 2-2.7 3.07l0.1 0.51c1.2 2.82 2.66 6.91 6.38 6.76 3.03 0.24 6.07 0.23 9.1 0.05 0.77 1.79 1.41 3.66 1.65 5.61-1.87 0.25-3.74 0.51-5.61 0.78 0.62 0.97 1.24 1.94 1.86 2.92-3.84 0.11-7.56 1.36-10.43 3.96-2.63 0.02-5.46 0.49-7.74-1.16-3.53-2.73-8.81-0.5-11.88-4.04-1.43-0.96-0.63-2.59-0.4-3.9-3.14-0.07-6.32 0.25-9.43-0.31-2.28-1.15-4.43-2.54-6.77-3.55 0.89-0.33 1.78-0.66 2.67-0.99-4.6-0.69-9.45-2.06-13.97-0.26-0.93-0.52-1.86-1.02-2.78-1.52 1.31-0.48 2.63-0.94 3.95-1.41 0.48-1.05 0.97-2.09 1.45-3.13 1.63-0.05 3.27-0.09 4.9-0.11-1.44-1.25-2.23-2.96-2.63-4.79-0.33-2.08-2.34-3.07-3.82-4.26 0.89-0.83 1.79-1.65 2.69-2.46-1.47-0.12-2.94-0.24-4.4-0.41 2.63-1.78 6.8-0.09 8.8-2.52-1.95 0.09-3.89 0.36-5.84 0.25-1.44-0.98-1.92-2.69-2.28-4.28 1.82-0.74 5.02 0.17 5.86-1.98-2.7-0.43-5.96 0.73-8.18-1.27 3.14-1.77 6.83-1.71 10.22-2.69-2.42-0.31-4.92-0.38-7.2-1.35 2.02-0.8 4.12-1.37 6.23-1.88-3.36-0.01-6.75-0.08-10.05-0.76 1.91-0.76 3.85-1.42 5.81-2.01-1.38-0.46-2.76-0.89-4.13-1.35 0.27-0.83 0.54-1.66 0.81-2.48-5.09-0.84-10.26-0.37-15.36 0.1 1.71-0.63 3.41-1.27 5.11-1.93-4.38-2.98-9.72-3.59-14.47-5.71 2.49-2.31 6.26-1.57 9.34-2.35 5.77-0.7 9.44-6.6 9.27-12.12 0.25 1.15 0.47 2.3 0.66 3.47 0.03 0.59 0.09 1.77 0.12 2.36 3.17-2.51 7.6-3.06 10.27-6.22 2.16-2.62 5.76-3.05 8.77-4.18-2.65 0.12-5.31 0.18-7.95-0.07z" fill="#b1dc9c"/>
 <path d="m326.73 240.23c-0.08-2.05 2.15-2.74 3.48-3.76 2.06 2.28 5.08 3.98 6.25 6.88 0.23 3.06-0.16 7.64-3.41 8.91-3.2-0.15-5.64-2.7-8.27-4.27 1.73-2.27 1.87-5.04 1.95-7.76z" fill="#d5eabd"/>
 <path d="m177.88 253.6c-1.77-4.54-2.83-9.89-0.07-14.29 3.53 3.38 8 5.49 12.58 7.04 0.08 0.4 0.22 1.21 0.3 1.62 9.5 2.42 19.28 0.16 28.59-1.97-1.1 1.1-2.44 1.89-3.88 2.47 0.88 0.45 1.64 1.09 2.53 1.55l-2.79 2.07c4.16 0.35 8.34 0.09 12.5-0.08 0.36 2.77 0.48 5.61-0.49 8.29-0.99 2.37 1.07 4.32 1.92 6.36-0.28 1.86-0.97 3.62-1.51 5.42 1.83 0.49 3.67 0.98 5.51 1.44-1.11 0.32-2.22 0.64-3.33 0.97 0.74 2.06-1.19 3.78-0.49 5.85-1.57 0.56-3.18 1.01-4.81 1.34 0.74 0.65 1.49 1.3 2.24 1.96-1.24 0.46-2.48 0.93-3.71 1.4 2.3 2.61 5.69 3.6 8.8 4.87-0.9 0.71-1.8 1.42-2.69 2.14 1.25 0.04 2.49 0.06 3.74 0.06-0.6 1.72-1.22 3.43-1.83 5.14-2.04 0.44-4.08 0.85-6.13 1.21 1.92 0.73 5.09 0.03 6.06 2.12-2.18 0.23-4.37 0.31-6.56 0.21-2.03-3.94-6.83-2.54-10.34-2.01-2.18 0.19-3.31 2.81-5.6 2.57-2.97 0.07-5.93 0.32-8.84 0.9l-0.1-0.51c0.85-1.07 1.78-2.06 2.7-3.07-1.48-0.08-2.95-0.16-4.42-0.26-0.22-0.78-0.44-1.56-0.66-2.33h-1.23c-0.2 0.86-0.39 1.72-0.59 2.59-2.62 0.11-5.24 0.08-7.84-0.25-0.74-2.05 0.62-3.64 1.88-5.09-1.32-1.81-2.2-3.88-3.35-5.78-1.28-1.57-3.02-2.68-4.36-4.19-0.19-1.25 0.48-2.43 0.74-3.62-0.94-1.72-1.89-3.52-1.49-5.54 0.5-3.81-3.27-6.93-2.2-10.67 1.33-3.32-1.08-6.53-0.78-9.93z" fill="#a7d97d"/>
 <path d="m282.3 239.8c2.77 1.86 2.33 5.45 2.19 8.35-0.35 5.64-4.29 10.15-8.35 13.7-4.33 1.77-9 0.69-13.17-0.94 0.34-0.27 1.04-0.81 1.38-1.08 3.3 1.62 7.44 2.24 10.67 0.1 6.35-4.29 9.74-12.7 7.28-20.13z" fill="#a5c07e"/>
 <path d="m146.32 248.01c0.51-1.44 1-2.88 1.54-4.3 0.11 0.5 0.33 1.5 0.45 1.99 0.17 5.52-3.5 11.42-9.27 12.12-3.08 0.78-6.85 0.04-9.34 2.35-4.11 10.26-4.82 21.43-5.77 32.32-1.62 9.44-1.02 19.25-3.78 28.47-0.51 2.54-3.33 2.19-5.23 1.76 0.93-0.49 1.86-0.99 2.8-1.49 2.84-5.29 2.71-11.51 3.4-17.33 1.67-15.56 1.89-31.61 7.38-46.44 3.17-0.51 6.36-0.92 9.54-1.34 4.25-0.25 6.86-4.54 8.28-8.11z" fill="#a8c296"/>
 <path d="m231.55 249.57c1.24-1.68 1.48-4.03 3.17-5.37 1.65 1.3 3.16 2.83 5.03 3.83 3.67 0.33 7.29-0.67 10.91-1.08 1.94 0.82 3.82 1.83 5.93 2.22-0.46 2.21-1.86 5.16 0.37 6.87 2.4 1.37 4.98 2.41 7.39 3.79-0.34 0.27-1.04 0.81-1.38 1.08-2.46 2.52-6.06 1.43-9.15 1.43 2.94 1.39 6.2 1.73 9.28 2.69-1.7 3.75-5.77 4.24-9.44 4.17 0.42 1.05 0.84 2.11 1.25 3.16-1.95 0.27-3.92 0.5-5.88 0.69 1.84 0.75 3.63 1.64 5.24 2.83-2.5 0.94-5.18 1.21-7.82 1.45 0.74 1.68 1.48 3.37 2.22 5.06-1.07 0.15-2.13 0.3-3.2 0.45-0.46 1.88-0.87 3.78-1.2 5.69-1.48 0.6-2.97 1.18-4.46 1.78 0.11 0.71 0.22 1.43 0.33 2.15-0.51 0.39-1.02 0.79-1.52 1.2 0.77 0.65 1.55 1.3 2.32 1.96-1.44 1.07-3.23 1.33-4.97 1.49-0.58-0.63-1.15-1.27-1.72-1.89 1.29-1.11 2.5-2.34 2.89-4.06-1.44 0.32-2.88 0.66-4.32 0.95-1.25 0-2.49-0.02-3.74-0.06 0.89-0.72 1.79-1.43 2.69-2.14-3.11-1.27-6.5-2.26-8.8-4.87 1.23-0.47 2.47-0.94 3.71-1.4-0.75-0.66-1.5-1.31-2.24-1.96 1.63-0.33 3.24-0.78 4.81-1.34-0.7-2.07 1.23-3.79 0.49-5.85 1.11-0.33 2.22-0.65 3.33-0.97-1.84-0.46-3.68-0.95-5.51-1.44 0.54-1.8 1.23-3.56 1.51-5.42-0.85-2.04-2.91-3.99-1.92-6.36 0.97-2.68 0.85-5.52 0.49-8.29 1.37-0.68 2.86-1.29 3.91-2.44z" fill="#b6de88"/>
 <path d="m41.48 252.73c3.37-1.27 6.99-1.26 10.54-1.42 1.7 0.23 3.32 0.79 4.93 1.35-1.25 0.75-2.52 1.49-3.79 2.22 2.89 0.12 5.93-0.32 8.69 0.75 3.02 1.44 6.47 1.22 9.63 2.21-0.36 0.32-1.07 0.96-1.42 1.28 2.82 0.93 6.14 2.53 8.99 0.83 2.88-1.73 5.89-3.35 9.33-3.5-5.02 3.34-8.64 9.35-7.16 15.53 2.12 9.49 7.64 17.74 12.8 25.83-1.12 0.51-2.23 1.03-3.35 1.54 0.26 0.49 0.77 1.46 1.03 1.94-1.24 0.5-2.51 0.94-3.73 1.49 2.82 1.42 6.04 1.4 9.12 1.7-3.66 0.49-7.29 1.17-10.81 2.3l-0.24 0.07c-4.29-7.07-9.89-13.31-16.3-18.52-7.52-6.47-16.08-11.94-22.05-20.01-3.6-4.44-5.05-10.11-6.21-15.59z" fill="#d2e8b4"/>
 <path d="m82.62 252.59c1.72 0.83 3.47 1.83 5.47 1.51 0.52 0.63 1.05 1.27 1.58 1.9-0.32 0.11-0.97 0.34-1.29 0.45-3.44 0.15-6.45 1.77-9.33 3.5-2.85 1.7-6.17 0.1-8.99-0.83 0.35-0.32 1.06-0.96 1.42-1.28 3-3.03 7.36-3.67 11.14-5.25z" fill="#dfefc4"/>
 <path d="m34.49 254.24c0.58-0.03 1.76-0.09 2.35-0.12 0.74 0.59 1.48 1.18 2.22 1.78 0.77 4.82 2.6 9.42 5.3 13.47-1.74 0.7-3.5 1.38-5.25 2.05-2.68-4.42-4.33-9.37-5.43-14.4 0.2-0.69 0.6-2.08 0.81-2.78z" fill="#d7ebbf"/>
 <path d="m354.07 256.08c0.63-0.64 1.25-1.27 1.89-1.9 1.09 2.2 1.84 4.56 2.17 7-1.93 6.38-5.06 12.48-9.61 17.41-7.91 8.83-18.16 15.09-26.53 23.43-8.22 8.1-12.96 18.8-18.9 28.51-2.03 0.42-3.97 0-5.6-1.28 5.33-8.61 9.7-17.83 15.77-25.97 6.14-8.2 14.46-14.32 22.42-20.62 8.61-6.67 16.76-15.37 18.39-26.58z" fill="#d8ecd3"/>
 <path d="m323.71 258.35c1.43 0.63 2.83 1.36 4.16 2.2 3.59 4.82 10.38 1.4 13.95-1.75 0.15 0.6 0.44 1.82 0.58 2.42-1.06 0.44-2.12 0.86-3.17 1.31 0.79 0.49 1.59 0.99 2.39 1.49-0.61 0.41-1.84 1.22-2.45 1.63 0.92 0.47 1.85 0.94 2.79 1.42-1.22 0.37-2.44 0.74-3.65 1.11 0.55 0.59 1.1 1.18 1.65 1.77-0.19 1.48-0.32 2.97-0.44 4.47-6.72 7.01-15.22 12.14-22.07 19.07-4.19 3.84-7.53 8.46-10.64 13.18l-0.71 0.08c-2.4 0.14-4.76 0.67-7.01 1.49 0.96 0.74 1.93 1.48 2.9 2.22-2.74 0.18-5.48 0.4-8.19 0.8 2.03 1.63 4.68 1.83 7.15 2.28-4.47 0.23-9.03 0.46-13.21 2.2 2.78 0.38 5.58 0.61 8.38 0.85-7.79 1.96-16.07-0.31-23.71 2.25 0.38 0.88 0.77 1.76 1.16 2.64-1.94 0.32-3.87 0.66-5.79 1.05 2.64 0.8 5.32 1.44 8.04 1.94-1.34 0.2-2.67 0.42-3.99 0.65-0.34 1.19-0.56 2.42-1.1 3.54-1.41 0.9-3.09 1.28-4.49 2.2-1.32 1.33-0.11 3.18 0.22 4.68-1.62 0.14-3.23 0.28-4.84 0.45 0.17-0.53 0.35-1.06 0.53-1.57-1.65-0.75-3.2-1.73-4.17-3.29 0.8-0.93 1.61-1.84 2.42-2.76-0.89-0.47-1.77-0.92-2.65-1.38 0.2-0.78 0.4-1.56 0.61-2.34-3.04-1.62-5.55 0.52-8.25 1.5-0.95-0.86-1.89-1.71-2.83-2.56 2.46-0.06 4.91-0.54 7.08-1.78-2-0.89-4.17-1.17-6.33-1.25 1.43-0.41 2.87-0.82 4.3-1.23-0.94-0.98-1.93-1.91-2.72-3-0.26-1.77-2.06-2.24-3.38-3 2.31-0.09 4.61-0.31 6.9-0.64-2.65-0.86-5.37-1.54-8.11-2.03 2.15-0.38 4.58-0.5 6.15-2.24-1.37-0.35-2.74-0.67-4.11-0.96 2.49-0.2 4.96-0.61 7.37-1.31-0.3-0.81-0.6-1.62-0.89-2.43 2.84-1.08 6.19-1.16 8.54-3.26 1.95-1.6 4.67-1.43 7-2.08-2.64-1.02-5.42-1.61-8.21-2.07 3.42-0.03 6.92 0.17 10.24-0.86 0.21-1.02 0.43-2.03 0.65-3.04 3.46-0.85 7.03-0.79 10.56-0.94-1.08-0.94-2.17-1.84-3.25-2.76 2.1-0.4 4.18-0.89 6.22-1.5-0.93-0.56-1.86-1.12-2.78-1.66 0.91-0.54 1.82-1.07 2.74-1.59-1.39-0.64-2.78-1.27-4.15-1.93 3.77-0.98 7.8-0.34 11.52-1.38 2.28-2.19 5.15-3.44 8.16-4.29-0.4-0.72-0.8-1.44-1.2-2.15 2.29-0.13 4.72 0.19 6.89-0.71 3.95-3.44 6.51-8.28 10.82-11.33 0.13-0.89 0.26-1.78 0.39-2.66 2.03-0.3 4.04-0.66 6.03-1.16z" fill="#cfe8bb"/>
 <path d="m91.05 266.22c8.99-2.52 18.07-4.84 27.24-6.62-0.22 0.69-0.66 2.05-0.88 2.74-8.29 0.48-16.11 3.41-24.15 5.22 2.29 9.07 6.17 17.63 10.14 26.07 1.82 3.95 5.08 7.31 5.57 11.79-2.11-2.16-3.51-4.86-4.95-7.47-5.35-10.12-9.55-20.82-12.97-31.73z" fill="#b8cda0"/>
 <path d="m129.7 260.17c4.75 2.12 10.09 2.73 14.47 5.71-1.7 0.66-3.4 1.3-5.11 1.93 5.1-0.47 10.27-0.94 15.36-0.1-0.27 0.82-0.54 1.65-0.81 2.48 1.37 0.46 2.75 0.89 4.13 1.35-1.96 0.59-3.9 1.25-5.81 2.01 3.3 0.68 6.69 0.75 10.05 0.76-2.11 0.51-4.21 1.08-6.23 1.88 2.28 0.97 4.78 1.04 7.2 1.35-3.39 0.98-7.08 0.92-10.22 2.69 2.22 2 5.48 0.84 8.18 1.27-0.84 2.15-4.04 1.24-5.86 1.98 0.36 1.59 0.84 3.3 2.28 4.28 1.95 0.11 3.89-0.16 5.84-0.25-2 2.43-6.17 0.74-8.8 2.52 1.46 0.17 2.93 0.29 4.4 0.41-0.9 0.81-1.8 1.63-2.69 2.46 1.48 1.19 3.49 2.18 3.82 4.26 0.4 1.83 1.19 3.54 2.63 4.79-1.63 0.02-3.27 0.06-4.9 0.11-2.24-2.1-4.14-4.64-6.76-6.3-2.63-1.15-5.17-2.48-7.61-3.98-4.08-1.57-9.03 0.79-12.76-1.98-2.1 1.1-4.3 2-6.57 2.69 0.95-10.89 1.66-22.06 5.77-32.32z" fill="#bde1a4"/>
 <path d="m93.26 267.56c8.04-1.81 15.86-4.74 24.15-5.22-3.8 14.93-5.96 30.35-5.85 45.77-1.24-0.4-2.33-1.38-2.59-2.69-0.49-4.48-3.75-7.84-5.57-11.79-3.97-8.44-7.85-17-10.14-26.07z" fill="#cae5ac"/>
 <path d="m44.36 269.37c1.39 1.9 2.9 3.71 4.46 5.47-1.15-0.18-2.29-0.35-3.43-0.53-0.23 1.53-0.46 3.06-0.69 4.6-2.13-2.29-4.05-4.78-5.59-7.49 1.75-0.67 3.51-1.35 5.25-2.05z" fill="#e4f1d8"/>
 <path d="m45.39 274.31c1.14 0.18 2.28 0.35 3.43 0.53 7.41 8.13 17.02 13.79 24.77 21.56 5.65 5.36 9.96 11.93 13.75 18.68-0.21 0.61-0.64 1.84-0.85 2.46-1.16 0.28-2.32 0.57-3.49 0.87-2.93-4.52-5.62-9.23-9.13-13.34-8.51-10.03-20.41-16.4-29.17-26.16 0.23-1.54 0.46-3.07 0.69-4.6z" fill="#cee8b9"/>
 <path d="m123.93 292.49c2.27-0.69 4.47-1.59 6.57-2.69 3.73 2.77 8.68 0.41 12.76 1.98 2.44 1.5 4.98 2.83 7.61 3.98 2.62 1.66 4.52 4.2 6.76 6.3-0.48 1.04-0.97 2.08-1.45 3.13-1.32 0.47-2.64 0.93-3.95 1.41 0.92 0.5 1.85 1 2.78 1.52-0.98 0.68-1.93 1.41-2.88 2.14 1.25 0.53 2.5 1.05 3.75 1.59-3.05 0.55-6.12 0.94-9.18 1.44-0.23 1.03-0.46 2.06-0.68 3.1-3.66 2.38-7.38-0.81-10.98-1.67-1.49 1.86-2.1 4.73-4.63 5.53-6.61 2.82-11.72 8.27-15.91 13.95-0.25 2.76 0.13 5.53 0.13 8.3-9.24-3.58-14.93-12.19-19.55-20.5-2.84-5.13-6.06-10.04-8.8-15.22 3.52-1.13 7.15-1.81 10.81-2.3-3.08-0.3-6.3-0.28-9.12-1.7 1.22-0.55 2.49-0.99 3.73-1.49-0.26-0.48-0.77-1.45-1.03-1.94 1.12-0.51 2.23-1.03 3.35-1.54 4.28 6.36 8.67 12.71 14.01 18.24 2.65 2.6 5.62 5.66 9.69 5.18-0.94 0.5-1.87 1-2.8 1.49 1.9 0.43 4.72 0.78 5.23-1.76 2.76-9.22 2.16-19.03 3.78-28.47z" fill="#c4e4b4"/>
 <path d="m232.82 292.11c1.44-0.29 2.88-0.63 4.32-0.95-0.39 1.72-1.6 2.95-2.89 4.06 0.57 0.62 1.14 1.26 1.72 1.89-0.93 0.09-1.87 0.17-2.8 0.25 1.42 0.52 2.85 1.02 4.28 1.56-0.64 0.92-1.26 1.85-1.89 2.78 1.21 0.22 2.43 0.45 3.64 0.69-1.96 1.74-4.52 2.4-7 3 1.34 0.43 2.67 0.88 4.01 1.33-7 1.19-14.11 1.46-21.15 2.34-3.03 0.18-6.07 0.19-9.1-0.05-3.72 0.15-5.18-3.94-6.38-6.76 2.91-0.58 5.87-0.83 8.84-0.9 2.29 0.24 3.42-2.38 5.6-2.57 3.51-0.53 8.31-1.93 10.34 2.01 2.19 0.1 4.38 0.02 6.56-0.21-0.97-2.09-4.14-1.39-6.06-2.12 2.05-0.36 4.09-0.77 6.13-1.21 0.61-1.71 1.23-3.42 1.83-5.14z" fill="#b1dc8e"/>
 <path d="m155.01 308.12c4.52-1.8 9.37-0.43 13.97 0.26-0.89 0.33-1.78 0.66-2.67 0.99 2.34 1.01 4.49 2.4 6.77 3.55 3.11 0.56 6.29 0.24 9.43 0.31-0.23 1.31-1.03 2.94 0.4 3.9 3.07 3.54 8.35 1.31 11.88 4.04 2.28 1.65 5.11 1.18 7.74 1.16 2.1 0.61 4.16 1.38 6.23 2.11-1.2 0.32-2.4 0.64-3.6 0.97 0.89 0.79 1.77 1.58 2.64 2.39-2.11 2.08-0.84 5.77-2.13 8.4 1.6 0.33 3.2 0.64 4.8 0.97-0.55 0.96-1.11 1.91-1.66 2.88 0.28 0.72 0.56 1.44 0.84 2.17-0.86 0.17-1.73 0.34-2.58 0.52 1.69 0.68 3.38 1.38 5.07 2.08-2.25 0.17-4.49 0.36-6.73 0.54 0.96 2.03 1.98 4.03 3.11 5.98-4.61 0.18-9.5 1.34-13.84-0.86-3.96-2.05-8.45-0.94-12.67-1.58 1.35-0.96 2.73-1.88 4.11-2.8-4.46 0.09-8.9 0.65-13.36 0.65-6.66 0.17-13.47-0.51-19.94 1.49-12.52-3.31-25.74-2.19-38.19-5.74 0-2.77-0.38-5.54-0.13-8.3 4.19-5.68 9.3-11.13 15.91-13.95 2.53-0.8 3.14-3.67 4.63-5.53 3.6 0.86 7.32 4.05 10.98 1.67 0.22-1.04 0.45-2.07 0.68-3.1 3.06-0.5 6.13-0.89 9.18-1.44-1.25-0.54-2.5-1.06-3.75-1.59 0.95-0.73 1.9-1.46 2.88-2.14z" fill="#b1ddb7"/>
 <path d="m299.09 308.24c2.25-0.82 4.61-1.35 7.01-1.49-0.32 2.62-2.03 4.72-3.3 6.94-4.87 8.02-8.93 16.76-15.74 23.37-5.06 5.04-12.32 6.71-19.16 7.59-4.64 0.44-9.27 1.16-13.93 1.18 0.22-0.86 0.44-1.7 0.67-2.55 3.57-0.79 7.17-3.24 6.98-7.29 1.61-0.17 3.22-0.31 4.84-0.45-0.33-1.5-1.54-3.35-0.22-4.68 1.4-0.92 3.08-1.3 4.49-2.2 0.54-1.12 0.76-2.35 1.1-3.54 1.32-0.23 2.65-0.45 3.99-0.65-2.72-0.5-5.4-1.14-8.04-1.94 1.92-0.39 3.85-0.73 5.79-1.05-0.39-0.88-0.78-1.76-1.16-2.64 7.64-2.56 15.92-0.29 23.71-2.25-2.8-0.24-5.6-0.47-8.38-0.85 4.18-1.74 8.74-1.97 13.21-2.2-2.47-0.45-5.12-0.65-7.15-2.28 2.71-0.4 5.45-0.62 8.19-0.8-0.97-0.74-1.94-1.48-2.9-2.22z" fill="#d7ecd3"/>
 <path d="m87.34 315.08c5.88 9.71 10.58 20.77 19.87 27.82-1.96-0.14-3.91-0.15-5.86-0.15-0.13 0.54-0.39 1.64-0.53 2.18-7.73-7.5-12.65-17.22-17.82-26.52 1.17-0.3 2.33-0.59 3.49-0.87 0.21-0.62 0.64-1.85 0.85-2.46z" fill="#c8e6c2"/>
 <path d="m244.25 315.99c1.78 0.11 3.57 0.23 5.36 0.34 0.79 1.09 1.78 2.02 2.72 3-1.43 0.41-2.87 0.82-4.3 1.23 2.16 0.08 4.33 0.36 6.33 1.25-2.17 1.24-4.62 1.72-7.08 1.78 0.94 0.85 1.88 1.7 2.83 2.56-4.21 0.36-7.51 3.29-11.48 4.34-4.38 0.08-8.78 0.12-13.16 0.37 0.37-0.59 1.09-1.78 1.46-2.38-1.45-1.58-3.69-1.08-5.59-0.97-4.49 0.53-9.02 0.71-13.54 0.29-0.87-0.81-1.75-1.6-2.64-2.39 1.2-0.33 2.4-0.65 3.6-0.97-2.07-0.73-4.13-1.5-6.23-2.11 2.87-2.6 6.59-3.85 10.43-3.96 3.36-0.24 6.69-0.97 10.06-0.93 2.83 0.62 4.93 3.4 7.99 3.27 3.26 0 6.53-0.23 9.79-0.13 2.09-0.01 4.77 0.21 5.83-2.03-0.8-0.86-1.59-1.71-2.38-2.56z" fill="#bce1af"/>
 <path d="m250.11 326.15c2.7-0.98 5.21-3.12 8.25-1.5-0.21 0.78-0.41 1.56-0.61 2.34 0.88 0.46 1.76 0.91 2.65 1.38-0.81 0.92-1.62 1.83-2.42 2.76 0.97 1.56 2.52 2.54 4.17 3.29-0.18 0.51-0.36 1.04-0.53 1.57 0.19 4.05-3.41 6.5-6.98 7.29-0.23 0.85-0.45 1.69-0.67 2.55-7.56 0.63-14.98 2.33-21.85 5.56-1.22 0.02-2.43 0.01-3.64 0-0.51-1.8-1.01-3.59-1.53-5.38-0.78 0.83-1.56 1.66-2.33 2.49 0.26 0.78 0.53 1.56 0.81 2.35-5.62 0.46-11.28 1.48-16.91 0.49-1.13-1.95-2.15-3.95-3.11-5.98 2.24-0.18 4.48-0.37 6.73-0.54-1.69-0.7-3.38-1.4-5.07-2.08 0.85-0.18 1.72-0.35 2.58-0.52-0.28-0.73-0.56-1.45-0.84-2.17 0.55-0.97 1.11-1.92 1.66-2.88-1.6-0.33-3.2-0.64-4.8-0.97 1.29-2.63 0.02-6.32 2.13-8.4 4.52 0.42 9.05 0.24 13.54-0.29 1.9-0.11 4.14-0.61 5.59 0.97-0.37 0.6-1.09 1.79-1.46 2.38 4.38-0.25 8.78-0.29 13.16-0.37 3.97-1.05 7.27-3.98 11.48-4.34z" fill="#c2e4b9"/>
 <path d="m284.58 343.51c5.59-3.41 9.32-8.95 12.91-14.26 1.63 1.28 3.57 1.7 5.6 1.28-3.9 5.8-7.37 12.09-13.07 16.36-7.56 5.72-17.25 7.62-26.52 8.09 0.07-0.36 0.21-1.07 0.28-1.42 0.65-0.54 1.3-1.07 1.95-1.59-1.08-1-2.16-1.99-3.22-2.98 7.44-1.29 15.47-1.35 22.07-5.48z" fill="#deefe0"/>
 <path d="m101.35 342.75c1.95 0 3.9 0.01 5.86 0.15 12.33 7.34 27.23 5.07 40.74 8 12 2.32 21.86 9.99 32.51 15.47-3.48 0.79-7.06 1.13-10.62 0.84-5.68-3.16-11.26-6.65-17.46-8.73-12.77-4.24-26.66-2.24-39.46-6.35-4.48-1.51-8.72-3.86-12.1-7.2 0.14-0.54 0.4-1.64 0.53-2.18z" fill="#b9e0c3"/>
 <path d="m152.82 348.24c6.47-2 13.28-1.32 19.94-1.49 4.46 0 8.9-0.56 13.36-0.65-1.38 0.92-2.76 1.84-4.11 2.8 4.22 0.64 8.71-0.47 12.67 1.58 4.34 2.2 9.23 1.04 13.84 0.86-0.74 2.64-2.83 4.44-4.65 6.36-1.4-0.53-2.79-1.08-4.18-1.62-0.19 0.95-0.37 1.9-0.55 2.86-3.18 0.99-5.37-1.46-7.51-3.34 0.24 1.03 0.5 2.08 0.75 3.13-4.65 1.07-9.43 1.29-14.13 2.07-8.5-3.95-16.33-9.71-25.43-12.56z" fill="#b4dfc3"/>
 <path d="m224.62 348.5c0.77-0.83 1.55-1.66 2.33-2.49 0.52 1.79 1.02 3.58 1.53 5.38 1.21 0.01 2.42 0.02 3.64 0-9.23 4.52-17.61 10.71-27.24 14.37-8.97 3.58-19.13 0.41-26.63-4.96 4.7-0.78 9.48-1 14.13-2.07-0.25-1.05-0.51-2.1-0.75-3.13 2.14 1.88 4.33 4.33 7.51 3.34 0.18-0.96 0.36-1.91 0.55-2.86 1.39 0.54 2.78 1.09 4.18 1.62 1.82-1.92 3.91-3.72 4.65-6.36 5.63 0.99 11.29-0.03 16.91-0.49-0.28-0.79-0.55-1.57-0.81-2.35z" fill="#c3e4c7"/>
 <path d="m239.32 352.37c7.52-2.24 15.38-2.97 23.19-3.38 1.06 0.99 2.14 1.98 3.22 2.98-0.65 0.52-1.3 1.05-1.95 1.59-0.07 0.35-0.21 1.06-0.28 1.42-8.95 0.81-18.21 1.12-26.51 4.92-11.72 4.98-21.72 13.83-34.36 16.58-11.74 2.66-23.17-3.13-32.79-9.27 3.56 0.29 7.14-0.05 10.62-0.84 6.27 2.86 13.15 5.72 20.18 4.21 14.25-2.85 25.07-13.71 38.68-18.21z" fill="#d0e9d0"/>
</svg>
